<svg width="800" height="600" xmlns="http://www.w3.org/2000/svg"><g><path d="M 393.0,447.0 L 392.29697895,446.6501465700001 L 391.3803696000001,446.1827433600002 L 390.2388526499999,445.57102598999995 L 388.8611088,444.7882300800001 L 387.23581875,443.80759125 L 385.3516632000001,442.60234512000005 L 383.19732285,441.14572731 L 380.76147840000004,439.41097344 L 378.03281055,437.3713191300001 L 375.0,435.0 L 369.67478276,430.6225524200001 L 363.78274048000014,425.5455385600002 L 357.4968673199999,419.91274973999987 L 350.99015743999996,413.86797728000005 L 344.435605,407.5550125 L 338.00620416000004,401.11764672000004 L 331.87494907999996,394.69967126 L 326.21483392,388.44487744 L 321.19885284,382.49705658000005 L 317.0,377.0 L 313.91113396000003,372.53425765000003 L 310.93712928000014,367.94463840000014 L 308.08398511999997,363.24140794999994 L 305.35770063999996,358.4348320000001 L 302.764275,353.53517625 L 300.30970736,348.55270640000003 L 297.99999688,343.49768815 L 295.84114272,338.38038720000003 L 293.83914404,333.21106925000004 L 292.0,328.0 L 290.18481985,322.36193551 L 288.49468480000013,316.6134908800001 L 286.93396794999995,310.74089736999986 L 285.50704240000005,304.73038624 L 284.21828125,298.56818875 L 283.0720576,292.24053616000003 L 282.07274455,285.73365973 L 281.2247152,279.03379072 L 280.53234265000003,272.12716039 L 280.0,265.0 L 279.65777006,259.27991419000006 L 279.35431488000006,253.52429632000005 L 279.1119464199999,247.77314472999996 L 278.95297664000003,242.06645776000002 L 278.8997175,236.44423375000002 L 278.97448096,230.94647104000003 L 279.19957897999996,225.61316797 L 279.59732352000003,220.48432288000004 L 280.19002654,215.59993411 L 281.0,211.0 L 281.85962742000004,206.67015475 L 282.70193536000005,202.22028160000005 L 283.59511633999995,197.63121144999997 L 284.60736288,192.8837752 L 285.80686749999995,187.95880375 L 287.26182272000005,182.837128 L 289.04042105999997,177.49957885 L 291.21085504000007,171.9269872 L 293.84131718000003,166.10018395 L 297.0,160.0 L 298.5509147,157.42680452000002 L 300.66148480000004,154.31042976000003 L 303.2592632999999,150.77733423999996 L 306.27180319999997,146.95397648 L 309.62665749999996,142.966815 L 313.25137920000003,138.94230832000002 L 317.0735213,135.00691496000002 L 321.02063680000003,131.28709344 L 325.0202787,127.90930228 L 329.0,125.0 L 333.21415556,122.29180991000003 L 337.5252012800001,119.72517728000003 L 341.89562371999995,117.32270056999998 L 346.28790944,115.10697824 L 350.664545,113.10060874999999 L 354.98801696,111.32619056 L 359.22081188,109.80632213000001 L 363.32541632000004,108.56360192000001 L 367.26431684000005,107.62062839000001 L 371.0,107.0 L 374.5548827800001,106.67396793000003 L 378.04632864000007,106.57426624000004 L 381.46855285999993,106.67652370999998 L 384.81577072000005,106.95636912 L 388.0821975,107.38943125 L 391.26204848000003,107.95133888000001 L 394.34953894,108.61772078999999 L 397.33888416,109.36420576 L 400.22429942,110.16642257000001 L 403.0,111.0 L 405.1778327200001,111.70081412000002 L 407.5383865600001,112.52123776000003 L 410.08165503999993,113.47468283999997 L 412.80763168000004,114.57456128000001 L 415.71631,115.834285 L 418.80768352000007,117.26726592 L 422.08174576,118.88691596000001 L 425.5384902400001,120.70664704000001 L 429.17791048000004,122.73987108000001 L 433.0,125.0 L 437.4280137800001,127.74315672000004 L 441.7328678400001,130.51751296000003 L 445.9000792599999,133.31610583999998 L 449.91516512000004,136.13197248 L 453.7636425,138.95815000000002 L 457.43102848,141.78767552000002 L 460.90284013999997,144.61358616 L 464.16459456000007,147.42891904 L 467.20180882000005,150.22671128000002 L 470.0,153.0 L 472.08294866000006,155.30468304000001 L 474.1453596800001,157.88104992000004 L 476.1713556199999,160.68516228 L 478.14505904000004,163.67308176 L 480.0505925,166.80087 L 481.8720785600001,170.02458864000002 L 483.59363978,173.30029932 L 485.19939872000003,176.58406368 L 486.67347794000005,179.83194336 L 488.0,183.0 L 489.40970211000007,186.89536289 L 490.6152476800001,190.98536032000004 L 491.6340535699999,195.23905742999997 L 492.48353664000007,199.62551936 L 493.18111375,204.11381125 L 493.74420176,208.67299824000003 L 494.19021753,213.27214547 L 494.53657792,217.88031808000002 L 494.80069978999995,222.46658121000002 L 495.0,227.0 L 495.09458991,230.84999597000007 L 495.0961420800001,234.5950553600001 L 495.0316631699999,238.25369638999993 L 494.9281598400001,241.84443728000002 L 494.81263875,245.38579625 L 494.71210656000005,248.89629152000003 L 494.65356993,252.39444131 L 494.66403552,255.89876384000002 L 494.77050999,259.42777733 L 495.0,263.0 L 495.28568152,266.60033291 L 495.54020096000016,270.2011836800001 L 495.7597706399999,273.80233036999994 L 495.94060288000003,277.40355104 L 496.07891,281.00462375 L 496.17090432000003,284.60532656000004 L 496.21279816000003,288.20543753 L 496.20080384000005,291.80473472000006 L 496.13113368000006,295.40299619 L 496.0,299.0 L 495.7464910000001,302.3330548 L 495.31221760000017,305.6834160000001 L 494.7360921999999,309.0085057999999 L 494.0570272,312.2657464 L 493.313935,315.41256 L 492.545728,318.4063688 L 491.79131859999995,321.204595 L 491.0896192,323.7646608 L 490.47954219999997,326.0439884 L 490.0,328.0 L 489.49227204000005,330.15356290000005 L 488.93210432000006,332.3548672 L 488.32313907999986,334.6065463 L 487.66901856000004,336.91123360000006 L 486.973385,339.27156249999996 L 486.23988064,341.6901664 L 485.47214771999995,344.1696787 L 484.67382848,346.7127328 L 483.84856516,349.32196210000006 L 483.0,352.0 L 482.08851412000007,354.93835427000005 L 481.23614336000014,357.78096096000013 L 480.4300100399999,360.5271958899999 L 479.65723648000005,363.17643488 L 478.904945,365.72805375 L 478.16025792,368.18142832 L 477.41029756,370.53593441 L 476.64218624000006,372.79094784000006 L 475.84304628,374.94584443 L 475.0,377.0 L 474.28823717,378.58354116 L 473.5477449600001,380.1338732800001 L 472.78194378999984,381.6648213199999 L 471.99425408,383.19021024 L 471.18809625,384.72386500000005 L 470.36689072,386.27961056 L 469.53405791,387.87127188 L 468.6930182400001,389.51267392 L 467.84719213000005,391.21764164 L 467.0,393.0 L 466.0233502400001,395.10384812000007 L 465.0255411200001,397.25299456000005 L 464.0208948799999,399.4217984399999 L 463.02373376,401.58461888000005 L 462.04838,403.715815 L 461.1091558400001,405.78974592000003 L 460.22038352000004,407.78077076 L 459.39638528000006,409.66324864 L 458.65148336000004,411.41153868000004 L 458.0,413.0 L 457.401,414.4090000000001 L 456.80800000000016,415.63200000000006 L 456.2269999999999,416.66299999999995 L 455.66400000000004,417.49600000000004 L 455.125,418.125 L 454.616,418.5440000000001 L 454.143,418.747 L 453.71200000000005,418.72800000000007 L 453.329,418.481 L 453.0,418.0 L 452.0,416.0 L 452.0,413.0" stroke="#000000" stroke-width="1" fill="none" id="stroke_0" /><path d="M 430.0,268.0 L 430.27200000000005,268.0 L 430.49600000000015,268.0000000000001 L 430.6839999999999,267.99999999999994 L 430.84800000000007,268.0 L 431.0,268.0 L 431.15200000000004,268.0 L 431.3159999999999,268.0 L 431.504,268.0 L 431.72800000000007,268.0 L 432.0,268.0 L 433.2872136500001,268.01979343 L 434.73231520000013,268.07037664000006 L 436.31049554999987,268.13855400999995 L 437.9969456,268.21112992 L 439.76685625,268.27490875 L 441.5954184,268.31669488 L 443.4578229499999,268.32329269 L 445.32926080000004,268.28150656 L 447.18492285,268.17814087 L 449.0,268.0 L 450.25157648000004,267.84019175000003 L 451.53911744000015,267.6647184 L 452.8448381599999,267.47610504999994 L 454.15095392,267.2768768 L 455.43968,267.06955875 L 456.69323168,266.856676 L 457.89382423999996,266.64075364999997 L 459.02367296000006,266.42431680000004 L 460.06499312,266.20989055 L 461.0,266.0 L 461.6788397600001,265.82361561000005 L 462.40905728000007,265.59722368000007 L 463.1898159199999,265.31260906999995 L 464.02027903999993,264.96155664 L 464.89961,264.53585125 L 465.82697216,264.02727776 L 466.80152888,263.42762103 L 467.82244352,262.72866592 L 468.88887944000004,261.92219729000004 L 470.0,261.0 L 470.6912302500001,260.34767726 L 471.4765120000001,259.51237888 L 472.3463067499999,258.50874761999995 L 473.29107600000003,257.35142624 L 474.30128125,256.0550575 L 475.367384,254.63428416 L 476.47984575,253.10374897999998 L 477.62912800000004,251.47809472 L 478.80569225000005,249.77196414000002 L 480.0,248.0 L 483.0,240.0 L 487.0,233.0 L 489.0,229.0" stroke="#000000" stroke-width="1" fill="none" id="stroke_1" /><path d="M 344.0,285.0 L 343.34400000000005,285.00000000000006 L 342.5920000000001,285.00000000000006 L 341.768,284.99999999999994 L 340.896,285.0 L 340.0,285.0 L 339.10400000000004,285.00000000000006 L 338.23199999999997,285.0 L 337.408,285.0 L 336.656,285.0 L 336.0,285.0 L 334.80355617000004,284.9902086100001 L 333.6126441600001,284.9562972800001 L 332.42489319,284.89146027 L 331.23793248,284.7888918400001 L 330.04939125,284.64178625 L 328.85689872,284.44333776 L 327.65808411,284.18674063 L 326.45057664,283.8651891200001 L 325.23200553000004,283.47187749 L 324.0,283.0 L 322.26455244000005,282.30447616 L 320.56756032000004,281.6620988800001 L 318.9142234799999,281.0608985199999 L 317.30974176,280.48890544 L 315.759315,279.93415 L 314.26814304,279.38466256000004 L 312.84142571999996,278.82847348 L 311.48436288000005,278.25361312000007 L 310.20215436,277.64811184 L 309.0,277.0 L 308.05348864,276.43485044000005 L 307.09593632000013,275.83702272000005 L 306.1436926799999,275.22420027999993 L 305.21310736000004,274.61406656 L 304.32052999999996,274.02430499999997 L 303.48231024000006,273.47259904000003 L 302.71479772,272.97663212 L 302.03434208,272.55408768000007 L 301.45729296,272.22264916 L 301.0,272.0 L 300.71949473,271.87800633 L 300.4372262400001,271.7410470400001 L 300.1605645099999,271.58823370999994 L 299.89687952,271.41867792000005 L 299.65354125,271.23149125 L 299.43791968,271.02578528000004 L 299.25738479,270.80067159 L 299.11930656000004,270.55526176 L 299.03105497,270.28866737 L 299.0,270.0 L 298.0,268.0 L 297.0,267.0 L 296.0,266.0" stroke="#000000" stroke-width="1" fill="none" id="stroke_2" /><path d="M 434.0,197.0 L 433.94377822,197.00489583000004 L 433.7823225600002,197.02185184000007 L 433.52644753999994,197.05427081 L 433.18696768,197.10555552000002 L 432.7746975,197.17910875 L 432.30045152,197.27833328000003 L 431.77504425999996,197.40663189 L 431.2092902400001,197.56740736 L 430.61400398,197.76406247 L 430.0,198.0 L 429.10017512,198.36523176000003 L 428.1540873600001,198.74440128000006 L 427.1624040399999,199.15184591999997 L 426.1257924800001,199.60190304000002 L 425.04492,200.10890999999998 L 423.9204539200001,200.68720416 L 422.75306156,201.35112288 L 421.54341024000007,202.11500352000002 L 420.29216728,202.99318344 L 419.0,204.0 L 418.21043581000004,204.69946641 L 417.5132812800002,205.42977408000007 L 416.9063464699999,206.19606866999996 L 416.38744144000003,207.00349584000003 L 415.95437625,207.85720125 L 415.6049609600001,208.76233056 L 415.33700563,209.72402942999997 L 415.14832032000004,210.74744352000002 L 415.03671509000003,211.83771849 L 415.0,213.0 L 415.06922903000003,213.89354916000002 L 415.2639254400001,214.77706368000008 L 415.56460320999986,215.65484411999992 L 415.9517763200001,216.53119103999998 L 416.40595874999997,217.410405 L 416.90766448,218.29678656000002 L 417.43740748999994,219.19463628 L 417.97570176,220.10825472000005 L 418.50306127,221.04194244 L 419.0,222.0 L 419.44615878,222.87152642000004 L 419.9505702400001,223.77076576000007 L 420.5125430599999,224.68136513999997 L 421.13138592,225.58697168 L 421.8064075,226.47123249999999 L 422.53691648000006,227.31779472 L 423.32222154,228.11030546 L 424.16163136,228.83241184000002 L 425.05445462,229.46776098 L 426.0,230.0 L 427.69459478,230.73122410000002 L 429.3736806400001,231.27502080000005 L 431.04352385999994,231.65740669999994 L 432.71039072,231.90439840000002 L 434.38054750000003,232.0420125 L 436.06026048,232.0962656 L 437.75579594,232.0931743 L 439.47342016000005,232.05875520000004 L 441.21939942000006,232.0190249 L 443.0,232.0 L 444.53379258000007,232.03912057000002 L 446.1245958400001,232.13909536000008 L 447.7565480599999,232.27384398999996 L 449.4137875200001,232.41728608000005 L 451.0804525,232.54334125 L 452.74068128000005,232.62592912 L 454.37861214,232.63896931 L 455.97838336000007,232.55638144000002 L 457.52413322,232.35208513 L 459.0,232.0 L 460.01413826000004,231.63716476000005 L 460.9849772800001,231.1847708800001 L 461.9109094199999,230.65663911999997 L 462.7903270400001,230.06659024000004 L 463.62162250000006,229.428445 L 464.40318816,228.75602416000004 L 465.13341637999997,228.06314848 L 465.81069952000007,227.36363872000004 L 466.43342994,226.67131564000002 L 467.0,226.0 L 467.64436710000007,225.15421403000002 L 468.21163360000014,224.29560384000007 L 468.7103482999999,223.43279400999995 L 469.14905999999996,222.57440911999998 L 469.5363175,221.72907375 L 469.88066960000003,220.90541248000002 L 470.19066510000005,220.11204988999998 L 470.4748528,219.35761056 L 470.7417815,218.65071907 L 471.0,218.0 L 471.2978044100001,217.11741546000002 L 471.47354848000015,216.22871968000007 L 471.5398544699999,215.34308641999996 L 471.50934464000005,214.46968944 L 471.39464125,213.6177025 L 471.20836656000006,212.79629936 L 470.9631428299999,212.01465378 L 470.67159232000006,211.28193952 L 470.34633729000006,210.60733034000003 L 470.0,210.0 L 469.19023562000007,208.76746025000003 L 468.34259456000007,207.61475200000004 L 467.4637609399999,206.53131674999997 L 466.56041888,205.506596 L 465.6392525,204.53003124999998 L 464.70694592,203.59106400000002 L 463.77018325999995,202.67913575 L 462.83564864000004,201.783688 L 461.91002618,200.89416225 L 461.0,200.0 L 460.07874039,199.12635697000005 L 459.12885472000016,198.30260256000008 L 458.1711827299999,197.52449879 L 457.22656416,196.78780768000001 L 456.31583875,196.08829125 L 455.45984624000005,195.42171152 L 454.67942637,194.78383051 L 453.99541888000005,194.17041024 L 453.42866351,193.57721273 L 453.0,193.0 L 452.81013686000006,192.72995704000004 L 452.5595036800001,192.43482592000007 L 452.2533778199999,192.12151827999995 L 451.89703664,191.79694576 L 451.4957575,191.46802 L 451.05481776000005,191.14165264 L 450.57949478,190.82475531999998 L 450.07506592000004,190.52423968000002 L 449.54680854000003,190.24701736 L 449.0,190.0 L 448.54978520000003,189.79910080000005 L 447.9997136000001,189.53213440000005 L 447.37474939999987,189.21561759999997 L 446.6998568,188.86606720000003 L 446.0,188.5 L 445.30014320000004,188.13393280000003 L 444.62525059999996,187.7843824 L 444.00028640000005,187.46786560000004 L 443.4502148,187.20089919999998 L 443.0,187.0 L 442.7133839800001,186.88634134000003 L 442.40661024000013,186.77957152000008 L 442.07778925999986,186.68657877999996 L 441.72503152,186.61425136000003 L 441.34644750000007,186.5694775 L 440.94014768,186.55914544 L 440.50424254000006,186.59014342 L 440.0368425600001,186.66935968 L 439.5360582200001,186.80368246 L 439.0,187.0 L 438.24598741000005,187.36772205000003 L 437.5467020800001,187.81012640000006 L 436.8944556699999,188.31023034999996 L 436.28155984,188.85105120000003 L 435.70032625,189.41560625 L 435.1430665600001,189.98691280000003 L 434.60209242999997,190.54798814999998 L 434.06971552000005,191.08184960000003 L 433.53824749,191.57151445 L 433.0,192.0 L 432.35742921,192.51487583000002 L 431.79890048000016,193.05906304000004 L 431.3131122699999,193.62033020999993 L 430.8887630400001,194.18644592 L 430.51455125,194.74517874999998 L 430.17917536000004,195.28429728 L 429.8713338299999,195.79157009 L 429.57972512000003,196.25476576 L 429.29304769,196.66165287 L 429.0,197.0 L 428.45700000000005,197.57100000000003 L 428.01600000000013,198.08800000000005 L 427.65899999999993,198.55699999999993 L 427.36800000000005,198.984 L 427.125,199.375 L 426.91200000000003,199.736 L 426.711,200.07299999999998 L 426.504,200.392 L 426.273,200.699 L 426.0,201.0 L 425.0,201.0" stroke="#000000" stroke-width="1" fill="none" id="stroke_3" /><path d="M 365.0,227.0 L 365.00571903,226.66428491000005 L 365.0114454400001,226.25967968000003 L 365.0000332099999,225.78999436999993 L 364.95433632000004,225.25903904 L 364.85720875,224.67062375 L 364.69150448000005,224.02855856000002 L 364.44007748999996,223.33665352999998 L 364.08578176000003,222.59871872000002 L 363.61147127,221.81856419000002 L 363.0,221.0 L 362.2153433,220.07486357000002 L 361.47009760000014,219.25884416000005 L 360.7565384999999,218.53811758999996 L 360.0669416,217.89885968 L 359.3935825,217.32724625 L 358.7287368,216.80945312 L 358.0646801,216.33165610999998 L 357.393688,215.88003104 L 356.7080361,215.44075373 L 356.0,215.0 L 355.20021925000003,214.53267506 L 354.4164240000001,214.12307168000004 L 353.6509347499999,213.76348801999993 L 352.90607200000005,213.44622224000003 L 352.18415625,213.1635725 L 351.48750800000005,212.90783696000003 L 350.81844775,212.67131378 L 350.179296,212.44630112000002 L 349.57237325,212.22509714 L 349.0,212.0 L 348.51299829000004,211.82609019000006 L 347.8511379200001,211.63254112000007 L 347.0372410299999,211.42454332999995 L 346.09412976000004,211.20728736 L 345.04462624999996,210.98596375 L 343.91155264,210.76576304 L 342.71773107,210.55187576999998 L 341.48598368,210.34949248000004 L 340.23913261,210.16380371000002 L 339.0,210.0 L 338.4026401400001,209.94061809000007 L 337.7977523200001,209.90616192000005 L 337.17960617999995,209.89223282999995 L 336.54247136,209.89443216 L 335.88061749999997,209.90836124999998 L 335.18831424000007,209.92962144 L 334.45983122,209.95381406999996 L 333.68943808000006,209.97654048 L 332.87140446,209.99340201 L 332.0,210.0 L 331.09939277,209.99010315000004 L 330.19784096000006,209.96481120000007 L 329.2957493899999,209.93072204999996 L 328.39352288000003,209.8944336 L 327.49156625,209.86254375 L 326.59028432,209.84165040000002 L 325.69008191,209.83835145 L 324.79136384000003,209.8592448 L 323.89453493,209.91092835 L 323.0,210.0 L 321.80659054,210.20741611000003 L 320.6765875200001,210.51344768000004 L 319.60233098,210.89716256999995 L 318.57616096,211.33762864000002 L 317.5904175,211.81391374999998 L 316.63744064,212.30508576 L 315.70957042,212.79021253000002 L 314.79914688,213.24836192000004 L 313.89851006000004,213.65860179000003 L 313.0,214.0 L 312.12209143000007,214.30790803000005 L 311.29188064000004,214.62811744000004 L 310.51464000999994,214.95535621 L 309.79564192000004,215.28435232 L 309.14015875,215.60983375 L 308.55346288000004,215.92652848000003 L 308.04082669,216.22916449 L 307.60752256,216.51246976000002 L 307.25882287,216.77117227 L 307.0,217.0 L 306.82817713000003,217.23082773000004 L 306.7284774400001,217.50353024000006 L 306.6881733099999,217.82483550999996 L 306.69453712000006,218.20147152 L 306.73484125,218.64016625 L 306.79635808000006,219.14764768 L 306.86635999,219.73064379000002 L 306.93211936,220.39588256000002 L 306.98090857,221.15009197 L 307.0,222.0 L 306.9890999400001,222.63927998000003 L 306.97013312000007,223.34855104000007 L 306.96369957999997,224.11495985999994 L 306.99039936,224.92565312000002 L 307.0708325,225.7677775 L 307.22559904,226.62847968 L 307.47529902,227.49490634 L 307.84053248,228.35420416000002 L 308.34189946000004,229.19351982 L 309.0,230.0 L 310.05003641,231.09566001000002 L 311.13303808000006,232.19663968000006 L 312.2408066699999,233.29297246999997 L 313.36514384,234.37469184000003 L 314.49785125,235.43183125000002 L 315.63073056,236.45442415999997 L 316.75558343,237.43250403000002 L 317.86421152,238.35610432000001 L 318.94841649,239.21525849000002 L 320.0,240.0 L 321.16834523,240.72579586000003 L 322.4793478400001,241.34323328000005 L 323.90714920999994,241.86579701999995 L 325.42589072,242.30697184000002 L 327.00971375,242.68024250000002 L 328.63275968000005,242.99909376 L 330.26916989,243.27701038 L 331.89308576,243.52747712000001 L 333.47864867,243.76397874000003 L 335.0,244.0 L 335.9305074900001,244.15109165000007 L 336.85462912,244.29851520000005 L 337.78055062999994,244.43938855 L 338.71645775999997,244.57082960000002 L 339.67053625,244.68995625 L 340.65097184,244.79388640000002 L 341.66595027,244.87973795 L 342.72365728000005,244.94462880000003 L 343.83227861,244.98567685 L 345.0,245.0 L 345.92800000000005,245.00000000000003 L 346.90400000000005,245.00000000000006 L 347.9159999999999,244.99999999999994 L 348.952,245.00000000000003 L 350.0,245.0 L 351.04800000000006,245.00000000000003 L 352.084,245.0 L 353.096,245.0 L 354.072,245.0 L 355.0,245.0 L 355.6280000000001,244.971 L 356.3040000000001,244.88800000000003 L 357.01599999999996,244.75699999999995 L 357.752,244.58400000000003 L 358.5,244.375 L 359.24800000000005,244.13600000000002 L 359.984,243.873 L 360.696,243.592 L 361.372,243.299 L 362.0,243.0 L 362.58134713000004,242.70695258000003 L 363.12923424000013,242.42027584000007 L 363.6494299099999,242.12866805999997 L 364.14770272,241.82082752000002 L 364.62982124999996,241.4854525 L 365.10155407999997,241.11124128000003 L 365.56866978999994,240.68689214 L 366.03693696000005,240.20110336000002 L 366.51212417,239.64257322000003 L 367.0,239.0 L 367.35910038000003,238.48247512000003 L 367.6581094400001,238.01285376000007 L 367.90630305999997,237.58296583999996 L 368.11295712,237.18464128000002 L 368.2873475,236.80971 L 368.43875008000003,236.45000192000003 L 368.57644074,236.09734695999998 L 368.70969536,235.74357504 L 368.84778982,235.38051608 L 369.0,235.0 L 369.0929936700001,234.71749959000002 L 369.14695296000014,234.42123392000008 L 369.16876628999995,234.10657332999992 L 369.16532208,233.76888816000002 L 369.14350875,233.40354875 L 369.11021472000004,233.00592544000003 L 369.07232841,232.57138856999998 L 369.03673824000003,232.09530848000003 L 369.01033263,231.57305551000002 L 369.0,231.0 L 369.02471931,230.39513603000003 L 369.08789088000015,229.77826144000005 L 369.17303516999993,229.14595220999996 L 369.26367264000004,228.49478432000004 L 369.34332374999997,227.82133375 L 369.39550896000003,227.12217648 L 369.40374872999996,226.39388849 L 369.35156352,225.63304576000002 L 369.22247379,224.83622427 L 369.0,224.0 L 368.19306668,221.78535372000005 L 367.3599078400001,220.0222873600001 L 366.5192691599999,218.65934563999994 L 365.68989632,217.64507328000002 L 364.890535,216.92801500000002 L 364.13993088000007,216.45671552000005 L 363.45682964,216.17971955999997 L 362.85997696000004,216.04557184000004 L 362.36811852,216.00281708 L 362.0,216.0 L 360.0,215.0 L 358.0,214.0 L 357.0,214.0" stroke="#000000" stroke-width="1" fill="none" id="stroke_4" /><path d="M 389.0,250.0 L 389.04239794000006,250.30051033000004 L 389.15963712000007,250.61514784000008 L 389.33678557999986,250.96357231 L 389.55891136,251.36544352000004 L 389.8110825,251.84042125000002 L 390.07836704,252.40816528000002 L 390.34583302,253.08833539 L 390.59854848000003,253.90059136000002 L 390.82158146,254.86459297000002 L 391.0,256.0 L 391.2070343800001,257.93132177000007 L 391.38423904000007,260.1196089600001 L 391.52554725999994,262.51588939 L 391.6248923200001,265.07119088 L 391.67620750000003,267.73654125 L 391.67342608,270.46296832 L 391.61048134,273.20149991 L 391.48130656,275.90316384000005 L 391.27983502000006,278.51898793 L 391.0,281.0 L 390.7883017500001,283.1314385 L 390.7066976000001,285.2943632000001 L 390.74071044999994,287.4493468999999 L 390.87586319999997,289.55696240000003 L 391.09767875,291.5777825 L 391.39168,293.47238000000004 L 391.74338984999997,295.2013277 L 392.13833120000004,296.7251984 L 392.56202695,298.0045649 L 393.0,299.0 L 393.6870010200001,300.31159027000007 L 394.3554825600001,301.5864537600001 L 395.0051393399999,302.82073048999996 L 395.63566608,304.0105604800001 L 396.24675750000006,305.15208375 L 396.83810832,306.24144032000004 L 397.40941326,307.27477021 L 397.96036704000005,308.24821344000003 L 398.49066438,309.15791003000004 L 399.0,310.0 L 399.4743410000001,310.6696604300001 L 399.9950080000001,311.2439078400001 L 400.54676699999993,311.7360504099999 L 401.11438400000003,312.15939632 L 401.68262500000003,312.52725375 L 402.236256,312.85293088000003 L 402.760043,313.14973589 L 403.23875200000003,313.43097696 L 403.657149,313.70996227 L 404.0,314.0 L 404.41600000000005,314.271 L 405.04800000000006,314.48800000000006 L 405.8719999999999,314.6569999999999 L 406.864,314.78400000000005 L 408.0,314.875 L 409.25600000000003,314.93600000000004 L 410.608,314.97299999999996 L 412.03200000000004,314.992 L 413.504,314.999 L 415.0,315.0 L 419.0,315.0 L 420.0,314.0 L 421.0,313.0" stroke="#000000" stroke-width="1" fill="none" id="stroke_5" /><path d="M 349.0,339.0 L 349.02425961,339.3596433000001 L 349.09514528000005,339.82539840000004 L 349.2098172699999,340.3775030999999 L 349.36543584000003,340.9961952 L 349.55916125,341.6617125 L 349.78815376,342.3542928 L 350.04957363,343.05417389999997 L 350.34058112,343.7415936 L 350.65833649,344.3967897 L 351.0,345.0 L 351.79738480000003,346.30483498 L 352.6178336000001,347.65562144000006 L 353.469582,349.0347246599999 L 354.3608656,350.4245099200001 L 355.29992,351.8073425 L 356.2949808000001,353.16558768 L 357.3542836,354.48161073999995 L 358.48606400000006,355.73777696 L 359.6985576,356.91645162 L 361.0,358.0 L 362.86627177,359.3579150300001 L 364.64020576000013,360.5102582400001 L 366.35090598999994,361.4792928099999 L 368.0274764800001,362.28728192 L 369.69902125,362.95648875 L 371.39464432000005,363.50917648 L 373.14344971,363.96760828999993 L 374.97454144000005,364.35404736000004 L 376.91702353000005,364.69075687000003 L 379.0,365.0 L 381.14155862000007,365.23593356000003 L 383.39801856000014,365.3728332800001 L 385.7561619399999,365.4281757199999 L 388.20277088,365.41943744 L 390.7246275,365.364095 L 393.30851392,365.27962496000004 L 395.94121226000004,365.18350388 L 398.60950464000007,365.09320832000003 L 401.30017318,365.02621484 L 404.0,365.0 L 407.42928579000005,365.00748078000004 L 410.5307939200001,365.0177094400001 L 413.3250005299999,365.0123654599999 L 415.83238176000003,364.97312832 L 418.07341375,364.8816775 L 420.06857263999996,364.71969248000005 L 421.8383345699999,364.46885274 L 423.40317568,364.11083776000004 L 424.78357211,363.62732702 L 426.0,363.0 L 427.26982832000004,362.16743787 L 428.5355977600001,361.2482025600001 L 429.80967803999994,360.2441766899999 L 431.1044388800001,359.15724288 L 432.43225,357.98928375 L 433.80548111999997,356.74218192 L 435.23650196,355.41782001 L 436.73768224,354.01808064 L 438.32139168000003,352.54484643 L 440.0,351.0 L 441.8606130300001,349.34245762 L 443.6924118400002,347.7908297600001 L 445.5094840099999,346.3268603399999 L 447.32591712000004,344.93229328 L 449.15579875000003,343.5888725 L 451.01321648000004,342.27834192000006 L 452.91225789,340.98244545999995 L 454.86701056000004,339.68292704000004 L 456.89156207,338.36153058 L 459.0,337.0 L 460.32573959000007,335.9428052100001 L 461.4663539200001,334.63998848000006 L 462.44745332999986,333.13842426999986 L 463.29464816000007,331.48498703999996 L 464.03354875,329.72655125 L 464.68976544,327.90999136000005 L 465.28890857,326.08218182999997 L 465.85658848,324.28999712 L 466.41841551000005,322.58031169000003 L 467.0,321.0 L 470.0,314.0 L 471.0,311.0 L 472.0,307.0" stroke="#000000" stroke-width="1" fill="none" id="stroke_6" /><path d="M 461.0,308.0 L 461.38947544,307.97652755 L 461.94035712000016,307.9165424000001 L 462.6263280799999,307.83569284999993 L 463.4210713600001,307.7496272 L 464.29827,307.67399375 L 465.23160704000003,307.6244408 L 466.19476552,307.61661664999997 L 467.16142848000004,307.6661696 L 468.10527896,307.78874795 L 469.0,308.0 L 469.9836717300001,308.33321991 L 470.8766518400001,308.70104128 L 471.6976437099999,309.0960535699999 L 472.46535072000006,309.51084624000003 L 473.19847625,309.93800875 L 473.9157236800001,310.37013056 L 474.63579639,310.79980113 L 475.37739776,311.21960992000004 L 476.15923117000006,311.62214639 L 477.0,312.0 L 477.58600398000004,312.29493753 L 478.1052902400001,312.66459264 L 478.55904425999984,313.1063681099999 L 478.94845152000005,313.61766672 L 479.2746975,314.19589125 L 479.53896768000004,314.83844448 L 479.74244753999994,315.54272919 L 479.88632256000005,316.30614816 L 479.97177822000003,317.12610417 L 480.0,318.0 L 481.0,321.0 L 482.0,323.0 L 482.0,324.0" stroke="#000000" stroke-width="1" fill="none" id="stroke_7" /><path d="M 340.0,225.0 L 339.96900000000005,224.72900000000004 L 339.87200000000007,224.51200000000009 L 339.703,224.34299999999993 L 339.456,224.216 L 339.125,224.125 L 338.70400000000006,224.064 L 338.187,224.027 L 337.56800000000004,224.00800000000004 L 336.841,224.001 L 336.0,224.0 L 335.39894503,223.98966737 L 334.8006934400001,223.96326176000008 L 334.2126152099999,223.92767158999996 L 333.64208032000005,223.88978528000004 L 333.09645875,223.85649125 L 332.58312048000005,223.83467792000002 L 332.10943549,223.83123371 L 331.68277376000003,223.85304704000004 L 331.31050527,223.90700633 L 331.0,224.0 L 330.64112075,224.18023448000002 L 330.3422400000001,224.39439104000004 L 330.0940982499999,224.63972935999996 L 329.88743600000004,224.91350912 L 329.71299375,225.21299 L 329.561512,225.53543168000004 L 329.42373125,225.87809383999996 L 329.290392,226.23823616000004 L 329.15223475000005,226.61311832 L 329.0,227.0 L 328.8813922400001,227.28765706000002 L 328.7619747200001,227.60154528000004 L 328.6519350799999,227.94952321999997 L 328.56146096,228.33944944 L 328.50073999999995,228.7791825 L 328.47995984,229.27658096000002 L 328.50930811999996,229.83950338 L 328.59897248000004,230.47580832000003 L 328.75914056,231.19335434 L 329.0,232.0 L 329.49316100000004,233.32823466000005 L 330.021176,234.48132608000006 L 330.57987799999995,235.48093341999993 L 331.1651,236.34871584 L 331.772675,237.1063325 L 332.39843600000006,237.77544256 L 333.038216,238.37770518000002 L 333.68784800000003,238.93477952 L 334.343165,239.46832474 L 335.0,240.0 L 335.84528558,240.68178956000006 L 336.70706144,241.34914528000004 L 337.58370325999994,241.99233071999998 L 338.47358672,242.60160944 L 339.3750875,243.167245 L 340.28658128,243.67950096 L 341.20644374,244.12864087999998 L 342.13305056,244.50492832000003 L 343.06477742000004,244.79862684 L 344.0,245.0 L 344.62317024000004,245.09025398000003 L 345.2992211200001,245.16713024000006 L 346.0147248799999,245.22812425999996 L 346.75625376,245.27073152000003 L 347.51038,245.2924475 L 348.26367583999996,245.29076768000002 L 349.00271352,245.26318754 L 349.71406528,245.20720256 L 350.38430336,245.12030822 L 351.0,245.0 L 351.59821392000003,244.79843587000002 L 352.0957209600001,244.51214976000006 L 352.5054350399999,244.15637608999995 L 352.84027008000004,243.74634928000003 L 353.11314000000004,243.29730375 L 353.33695872000004,242.82447392 L 353.52464016,242.34309420999998 L 353.68909824,241.86839904 L 353.84324688000004,241.41562283000002 L 354.0,241.0 L 354.39263265,239.98388059 L 354.6612768000001,239.13430912000004 L 354.8197087499999,238.42350672999996 L 354.8817048,237.82369456 L 354.86104124999997,237.30709374999998 L 354.77149440000005,236.84592544 L 354.62684055,236.41241076999995 L 354.44085600000005,235.97877088 L 354.22731705,235.51722691 L 354.0,235.0 L 353.7274884,234.56850592000004 L 353.26417920000006,234.06628096000006 L 352.65433079999997,233.50580703999992 L 351.9422016,232.89956608 L 351.17205,232.26004 L 350.38813440000007,231.59971072000002 L 349.63471319999996,230.93106016000002 L 348.95604480000003,230.26657024000002 L 348.3963876,229.61872288 L 348.0,229.0 L 347.68027685000004,228.44461240000004 L 347.3254288000001,227.97195520000005 L 346.94193794999995,227.57228679999994 L 346.53628640000005,227.2358656 L 346.11495625,226.95295 L 345.6844296,226.71379840000003 L 345.25118855,226.50866919999999 L 344.8217152,226.32782080000004 L 344.40249165,226.1615116 L 344.0,226.0 L 343.69049473,225.90600633000003 L 343.3252262400001,225.84504704000008 L 342.91756451,225.80423370999995 L 342.48087952000003,225.77067792 L 342.02854125,225.73149125 L 341.57391968,225.67378528 L 341.13038479,225.58467159 L 340.71130656,225.45126176000002 L 340.33005497,225.26066737000002 L 340.0,225.0 L 339.0,224.0 L 338.0,224.0" stroke="#000000" stroke-width="1" fill="none" id="stroke_8" /><path d="M 444.0,207.0 L 443.72800000000007,207.0 L 443.50400000000013,207.00000000000006 L 443.3159999999999,206.99999999999994 L 443.15200000000004,207.0 L 443.0,207.0 L 442.84800000000007,207.0 L 442.68399999999997,207.0 L 442.49600000000004,207.0 L 442.272,207.0 L 442.0,207.0 L 441.69794503,206.98966737 L 441.39269344000013,206.96326176000005 L 441.08561520999996,206.92767158999993 L 440.7780803200001,206.88978527999998 L 440.47145875,206.85649125 L 440.16712048,206.83467792 L 439.86643548999996,206.83123371 L 439.57077376000007,206.85304704000004 L 439.28150527,206.90700633 L 439.0,207.0 L 438.62345338000006,207.17717897000003 L 438.27497824000017,207.37908256000006 L 437.95042665999995,207.59834078999995 L 437.64565072000005,207.82758368 L 437.35650250000003,208.05944125000002 L 437.07883408000004,208.28654352 L 436.8084975400001,208.50152051 L 436.54134496000006,208.69700224000002 L 436.27322842,208.86561873 L 436.0,209.0 L 435.28100941,209.3480232 L 434.68455808000004,209.73564160000006 L 434.1996096699999,210.15233839999993 L 433.81512784,210.58759680000003 L 433.52007625,211.0309 L 433.30341856000007,211.47173120000002 L 433.15411843000004,211.8995736 L 433.06113952,212.3039104 L 433.01344549,212.6742248 L 433.0,213.0 L 433.00100000000003,213.35700000000003 L 433.00800000000004,213.8160000000001 L 433.02699999999993,214.35899999999998 L 433.064,214.96800000000002 L 433.125,215.625 L 433.216,216.31200000000004 L 433.34299999999996,217.01099999999997 L 433.51200000000006,217.704 L 433.729,218.373 L 434.0,219.0 L 434.31230895,219.58330895 L 434.64820960000014,220.1362096000001 L 435.0061626499999,220.66316264999995 L 435.3846288,221.16862880000002 L 435.78206875,221.65706875 L 436.1969432,222.13294320000003 L 436.62771284999997,222.60071284999998 L 437.0728384,223.0648384 L 437.53078055000003,223.52978055 L 438.0,224.0 L 438.4982194500001,224.46921945000003 L 439.03916160000017,224.92716160000006 L 439.6152871499999,225.37228714999995 L 440.21905680000003,225.80305680000004 L 440.84293125,226.21793125 L 441.47937120000006,226.61537120000003 L 442.12083735,226.99383734999998 L 442.75979040000004,227.35179040000003 L 443.38869105000003,227.68769105 L 444.0,228.0 L 444.6280000000001,228.29900000000004 L 445.30400000000014,228.59200000000007 L 446.01599999999996,228.87299999999996 L 446.75200000000007,229.136 L 447.5,229.375 L 448.248,229.584 L 448.98400000000004,229.757 L 449.696,229.88800000000003 L 450.372,229.971 L 451.0,230.0 L 451.3476985800001,229.99297800000005 L 451.77848384000015,229.96614400000007 L 452.2738900599999,229.91084599999996 L 452.81545152000007,229.81843200000006 L 453.3847025,229.68025 L 453.96317728,229.487648 L 454.53241013999997,229.23197399999998 L 455.07393536000006,228.90457600000002 L 455.56928722,228.496802 L 456.0,228.0 L 456.28493670000006,227.63621582000002 L 456.6295296000002,227.23945216000004 L 457.01266289999984,226.81905833999997 L 457.41322080000003,226.38438368000004 L 457.8100875,225.9447775 L 458.18214720000003,225.50958912000002 L 458.5082841,225.08816786 L 458.7673824000001,224.68986304000003 L 458.9383263,224.32402398 L 459.0,224.0 L 459.00730142000003,223.394978 L 459.02151616000015,222.78214400000007 L 459.03110993999985,222.16484599999993 L 459.02454848,221.546432 L 458.9902975,220.93025 L 458.91682272,220.319648 L 458.79258986,219.71797399999997 L 458.60606464,219.128576 L 458.34571278000004,218.554802 L 458.0,218.0 L 457.70804130000005,217.61651697000005 L 457.33661440000014,217.16496736000008 L 456.89818309999987,216.66116638999995 L 456.4052112,216.12092928 L 455.8701625,215.56007125 L 455.3055008,214.99440752000004 L 454.7236899,214.43975330999996 L 454.13719360000005,213.91192384000001 L 453.55847570000003,213.42673433 L 453.0,213.0 L 452.63209335000005,212.74773708000004 L 452.21591520000015,212.48664384000008 L 451.7502262499999,212.21605355999995 L 451.2337872,211.93529952 L 450.66535875,211.643715 L 450.0437016000001,211.34063328 L 449.36757644999994,211.02538764000002 L 448.63574400000005,210.69731136000001 L 447.84696495000003,210.35573772000004 L 447.0,210.0 L 446.3559960200001,209.76406247000003 L 445.67070976000014,209.5674073600001 L 444.95495573999995,209.40663188999997 L 444.2195484800001,209.27833328000003 L 443.4753025,209.17910875 L 442.73303232,209.10555552 L 442.00355246,209.05427081 L 441.29767744000003,209.02185184 L 440.62622178000004,209.00489583 L 440.0,209.0 L 439.97100000000006,209.00000000000003 L 439.88800000000015,209.00000000000009 L 439.75699999999995,208.99999999999997 L 439.584,209.00000000000003 L 439.375,209.0 L 439.136,209.0 L 438.87299999999993,208.99999999999997 L 438.592,209.0 L 438.299,209.0 L 438.0,209.0 L 437.0,209.0" stroke="#000000" stroke-width="1" fill="none" id="stroke_9" /><path d="M 413.0,389.0 L 412.7252084700001,388.99847118 L 412.4940745600001,388.9990086400001 L 412.29645928999986,389.00929825999987 L 412.12222368000005,389.03702591999996 L 411.96122875000003,389.0898775 L 411.80333552,389.1755388800001 L 411.63840501,389.30169593999995 L 411.45629824,389.47603456 L 411.24687623,389.70624062 L 411.0,390.0 L 410.31806248000004,390.87912563000003 L 409.65033824000017,391.84960384000016 L 409.00665875999994,392.92058360999994 L 408.39685552,394.10121391999996 L 407.83076000000005,395.40064375000003 L 407.31820368000007,396.8280220800001 L 406.86901804,398.39249788999996 L 406.49303456000007,400.10322016000003 L 406.20008472000006,401.96933787 L 406.0,404.0 L 405.95897345000014,405.50522547 L 406.04203200000006,407.01572416000016 L 406.23939594999996,408.51241648999996 L 406.54128560000004,409.97622288 L 406.93792125,411.38806375 L 407.4195232,412.72885952 L 407.97631175000004,413.97953061 L 408.59850720000003,415.12099744 L 409.27632985,416.13418043 L 410.0,417.0 L 411.06196501000005,418.02363918000003 L 412.17545088000014,418.9227878400001 L 413.32430686999993,419.7088266599999 L 414.49238224000004,420.39313632 L 415.66352625,420.9870975 L 416.82158816,421.50209088 L 417.95041722999997,421.94949713999995 L 419.03386272,422.34069696000006 L 420.05577389,422.68707102 L 421.0,423.0 L 425.0,424.0 L 430.0,426.0 L 432.0,426.0" stroke="#000000" stroke-width="1" fill="none" id="stroke_10" /><path d="M 345.0,429.0 L 344.98550648,429.89336793000007 L 344.94402304000016,431.34975264000013 L 344.8785453599999,433.3335755099999 L 344.79206912,435.80925792000005 L 344.68759,438.74122124999997 L 344.56810368000004,442.09388688 L 344.43660583999997,445.83167619 L 344.29609216000006,449.91901056000006 L 344.14955832000004,454.32031137 L 344.0,459.0 L 343.89151176000007,464.43887132000003 L 343.88831488000005,469.8846361600001 L 343.9682991199999,475.22313683999994 L 344.10935424,480.34021568000003 L 344.28936999999996,485.121715 L 344.48623616000003,489.45347712000006 L 344.67784248,493.22134436 L 344.84207872,496.31115904000006 L 344.95683464,498.60876348000005 L 345.0,500.0 L 347.0,499.0 L 352.0,494.0" stroke="#000000" stroke-width="1" fill="none" id="stroke_11" /><path d="M 485.0,395.0 L 484.9855205200001,395.60587869000005 L 484.94407296000014,396.25201312000013 L 484.87864363999984,396.9811508299999 L 484.79221888000006,397.83603936000003 L 484.687785,398.85942624999996 L 484.56832832000003,400.09405904 L 484.43683516,401.58268526999996 L 484.29629184000004,403.36805248 L 484.14968468000006,405.49290821 L 484.0,408.0 L 483.86780082000007,412.00953223000005 L 483.8839193600001,416.2301110400001 L 484.02041973999997,420.63179960999986 L 484.24936608,425.18466112000004 L 484.5428225,429.85875875 L 484.87285312000006,434.62415568000006 L 485.21152206,439.45091508999997 L 485.53089344,444.30910016000007 L 485.80303138,449.16877407000004 L 486.0,454.0 L 486.0825702400001,456.66165462000004 L 486.16321952000015,459.2346569600001 L 486.2441206799999,461.69711373999985 L 486.32744656,464.02713168 L 486.41537,466.20281750000004 L 486.51006384000004,468.20227792000003 L 486.6137009199999,470.00361966 L 486.72845408,471.58494944000006 L 486.85649616,472.92437398000004 L 487.0,474.0 L 487.06692617,474.2688628700001 L 487.1655129600001,474.4910425600001 L 487.2866437899999,474.6783066899999 L 487.42120208,474.8424228800001 L 487.56007124999996,474.99515875 L 487.6941347200001,475.14828192 L 487.81427591,475.31356001 L 487.91137824000003,475.50276064 L 487.9763251300001,475.72765143000004 L 488.0,476.0 L 488.01432369,476.38272139000003 L 488.05537312000007,476.91634272000016 L 488.1202658299998,477.57904972999984 L 488.20611936000006,478.34902816 L 488.31005125,479.20446375 L 488.42917904,480.12354224 L 488.56062026999996,481.08444937 L 488.70149248000007,482.06537088000005 L 488.84891321000003,483.04449251000005 L 489.0,484.0 L 489.03892617,484.29686287000015 L 489.0615129600001,484.59504256000014 L 489.07064378999985,484.89430668999995 L 489.06920208,485.19442288000005 L 489.06007124999996,485.49515875 L 489.04613472,485.79628192000007 L 489.03027591,486.09756000999994 L 489.01537824,486.39876064000003 L 489.00432513000004,486.69965143 L 489.0,487.0 L 489.0,488.0 L 489.0,488.0" stroke="#000000" stroke-width="1" fill="none" id="stroke_12" /></g></svg>