<svg width="800" height="600" xmlns="http://www.w3.org/2000/svg"><g><path d="M 333.0,361.0 L 333.0590000000001,361.0280000000001 L 333.2320000000001,361.10400000000016 L 333.51299999999986,361.21599999999995 L 333.896,361.35200000000003 L 334.375,361.5 L 334.944,361.648 L 335.597,361.784 L 336.32800000000003,361.8960000000001 L 337.13100000000003,361.972 L 338.0,362.0 L 340.1290000000001,362.00000000000006 L 342.31200000000007,362.0000000000001 L 344.54299999999995,361.99999999999994 L 346.816,362.00000000000006 L 349.125,362.0 L 351.46400000000006,362.00000000000006 L 353.827,362.0 L 356.208,362.00000000000006 L 358.601,362.0 L 361.0,362.0 L 364.10823733000007,362.00235529 L 366.90484384000007,362.0039299200001 L 369.49766130999996,361.99648702999997 L 371.99453152,361.97178976000004 L 374.50329625,361.92160125 L 377.13179728,361.83768464 L 379.98787639,361.71180307 L 383.17937536,361.53571968000006 L 386.81413597000005,361.30119761000003 L 391.0,361.0 L 394.59779110000005,360.7386893000001 L 398.17503520000014,360.4942656000001 L 401.7146214999999,360.26550549999996 L 405.19943920000003,360.05118560000005 L 408.6123775,359.85008250000004 L 411.93632560000003,359.6609728 L 415.15417269999995,359.4826331 L 418.24880800000005,359.31384 L 421.20312070000006,359.1533701 L 424.0,359.0 L 425.72574736,358.94440168000006 L 427.84633408000013,358.93058784000004 L 430.2698831199999,358.9391891599999 L 432.90451744000006,358.95083632 L 435.65836,358.94615999999996 L 438.43953376,358.90579088 L 441.15616167999997,358.81035964 L 443.71636672000005,358.64049696000006 L 446.02827184,358.37683352 L 448.0,358.0 L 449.77454858000004,357.54553678 L 451.4210150400001,357.1025766400001 L 452.94788445999995,356.67967785999986 L 454.3636419200001,356.28539872000005 L 455.67677249999997,355.9282975 L 456.89576128,355.61693248 L 458.02909334000003,355.35986194000003 L 459.08525376000006,355.16564416000006 L 460.07272762,355.04283742 L 461.0,355.0 L 461.988,355.0 L 463.14400000000006,355.00000000000006 L 464.4559999999999,354.9999999999999 L 465.91200000000003,355.00000000000006 L 467.5,355.0 L 469.208,355.00000000000006 L 471.024,355.0 L 472.93600000000004,355.0 L 474.932,355.0 L 477.0,355.0 L 478.6909085700001,354.98090857 L 480.1721193600001,354.93211936000006 L 481.45635998999995,354.8663599899999 L 482.55635808,354.79635808000006 L 483.48484125,354.73484125 L 484.25453712,354.69453712 L 484.87817330999997,354.68817331 L 485.36847744,354.72847744 L 485.73817713000005,354.82817713 L 486.0,355.0 L 486.1718228700001,355.23082287000005 L 486.2715225600001,355.5035225600001 L 486.31182668999986,355.8248266899999 L 486.30546288,356.20146288000007 L 486.26515875,356.64015875 L 486.20364192000005,357.14764192 L 486.13364001,357.73064001 L 486.06788064,358.39588064000003 L 486.01909143,359.15009143000003 L 486.0,360.0 L 486.00000000000006,360.92900000000003 L 486.0000000000001,361.91200000000015 L 485.9999999999999,362.9429999999999 L 486.0,364.0160000000001 L 486.0,365.125 L 486.00000000000006,366.264 L 486.0,367.427 L 486.0,368.60800000000006 L 486.0,369.80100000000004 L 486.0,371.0 L 485.95877097000005,372.7345491600001 L 485.8400745600001,374.3450636800002 L 485.65139678999986,375.8418441199999 L 485.40022368000007,377.2351910400001 L 485.09404125000003,378.53540499999997 L 484.74033552000003,379.75278656 L 484.34659251000005,380.89763628000003 L 483.9202982400001,381.98025472000006 L 483.46893873,383.01094244 L 483.0,384.0 L 482.55610941000003,384.92301248000007 L 482.0619388800001,385.96716064000015 L 481.52333426999996,387.1017675599999 L 480.9461414400001,388.2961563200001 L 480.33620625,389.51965 L 479.69937456,390.74157168000005 L 479.04149223,391.93124444 L 478.36840512000003,393.05799136 L 477.68595909000004,394.09113552 L 477.0,395.0 L 476.4553157100001,395.6511101900001 L 475.8974044800001,396.2917971200001 L 475.3266167699999,396.9217103299999 L 474.74330304,397.54049936 L 474.14781375,398.14781375 L 473.54049936,398.74330304 L 472.92171033,399.32661677 L 472.29179712,399.89740448 L 471.65111019000005,400.45531571000004 L 471.0,401.0 L 470.1858866500001,401.6807003 L 469.40821760000017,402.3497072000002 L 468.6545023499999,403.0046806999999 L 467.9122504,403.6432808 L 467.16897125,404.2631675 L 466.4121744000001,404.86200080000003 L 465.62936935000005,405.4374407 L 464.8080656000001,405.9871472 L 463.93577265,406.5087803 L 463.0,407.0 L 462.15087529000004,407.42139921 L 461.3044403200001,407.8492028800001 L 460.4554468299999,408.27922606999994 L 459.59864656,408.70728384000006 L 458.72879125,409.12919125 L 457.8406326400001,409.54076336 L 456.92892247,409.93781522999996 L 455.9884124800001,410.31616192 L 455.01385441,410.67161849 L 454.0,411.0 L 453.1302789600001,411.21125205000004 L 452.2414284800002,411.3338304000001 L 451.32976551999985,411.38338334999986 L 450.39160704,411.3755592 L 449.42327,411.32600625 L 448.42107136000004,411.25037280000004 L 447.38132808,411.16430715 L 446.30035712000006,411.08345760000003 L 445.17447544000004,411.02347245 L 444.0,411.0 L 443.04300000000006,411.028 L 441.98400000000015,411.1040000000001 L 440.8409999999999,411.21599999999995 L 439.63200000000006,411.352 L 438.375,411.5 L 437.0880000000001,411.648 L 435.789,411.784 L 434.49600000000004,411.896 L 433.22700000000003,411.972 L 432.0,412.0 L 430.79995291000006,411.9917435600001 L 429.5909436800001,411.96175488000006 L 428.35967036999995,411.9022049199999 L 427.09283104,411.80526464 L 425.77712375,411.663105 L 424.39924656000005,411.46789696 L 422.94589752999997,411.21181148000005 L 421.40377472,410.88701952 L 419.75957619,410.48569204 L 418.0,410.0 L 416.81431937,409.64955320000007 L 415.6355241600001,409.2939632000002 L 414.46817238999984,408.9393625999999 L 413.31682208,408.59188400000005 L 412.18603125,408.25766 L 411.08035792000004,407.9428232 L 410.00436011,407.65350620000004 L 408.96259584000006,407.39584160000004 L 407.95962313,407.175962 L 407.0,407.0 L 406.38089785000005,406.88709642000003 L 405.7152432000001,406.7434537600001 L 405.0137517499999,406.57334113999985 L 404.28713920000007,406.38102768000005 L 403.54612125,406.1707825 L 402.80141360000005,405.94687472 L 402.0637319499999,405.71357345999996 L 401.343792,405.47514784000003 L 400.65230945,405.23586698 L 400.0,405.0 L 398.89356618,404.61028683000006 L 397.8777286400001,404.2876502400001 L 396.92738325999994,404.0144126099999 L 396.01742592,403.77289632 L 395.1227525,403.54542375 L 394.21825888,403.31431728000007 L 393.27884094,403.06189929 L 392.27939456,402.77049216 L 391.19481562000004,402.42241827000004 L 390.0,402.0 L 388.8393512300001,401.5501785900001 L 387.67163104000014,401.0605987200001 L 386.4878786099999,400.5336549299999 L 385.27913312000004,399.97174176000004 L 384.03643375,399.37725375 L 382.75081968000006,398.75258544 L 381.41333009,398.10013137 L 380.01500416000005,397.42228608000005 L 378.54688107000004,396.72144411 L 377.0,396.0 L 376.13389993000004,395.55823331000005 L 375.2551094400001,395.03242528000015 L 374.35722910999993,394.4325719699999 L 373.43385952,393.76866944 L 372.47860125,393.05071375 L 371.48505488,392.28870096 L 370.44682099,391.49262713 L 369.35750016000003,390.67248832000007 L 368.21069296999997,389.83828059 L 367.0,389.0 L 365.53279917,388.05826297000004 L 364.0481369600001,387.18221856 L 362.56649478999987,386.36737679 L 361.10835408,385.60924768000007 L 359.69419625,384.90334125 L 358.34450272000004,384.24516752000005 L 357.07975490999996,383.63023651000003 L 355.9204342400001,383.05405824 L 354.88702213,382.51214273 L 354.0,382.0 L 353.66511427,381.767553 L 353.36451296000007,381.51262400000013 L 353.07157988999995,381.22968099999997 L 352.75969888000003,380.91319200000004 L 352.40225375,380.55762500000003 L 351.97262832,380.157448 L 351.44420641,379.707129 L 350.79037184000003,379.201136 L 349.98450843,378.633937 L 349.0,378.0 L 348.24028231000005,377.52866294000006 L 347.5633148800001,377.1043619200001 L 346.9513761699999,376.71540317999995 L 346.38674464,376.35009296 L 345.85169874999997,375.9967375 L 345.32851696,375.64364304000003 L 344.79947773000004,375.27911582 L 344.24685952000004,374.89146208000005 L 343.65294079,374.46898806 L 343.0,374.0 L 342.41392009,373.5689639200001 L 341.74688032000006,373.0638969600001 L 341.0030806299999,372.4901470399999 L 340.18672096,371.85306208000003 L 339.30200125,371.15799 L 338.35312144,370.41027872 L 337.34428147,369.61527615999995 L 336.27968128000003,368.77833024000006 L 335.16352081,367.90478887999996 L 334.0,367.0 L 332.53590285,365.90892578 L 331.17956960000004,364.9673510400001 L 329.92926354999986,364.14346965999994 L 328.78324799999996,363.40547552 L 327.73978624999995,362.7215625 L 326.7971416,362.05992448 L 325.95357734999993,361.38875534 L 325.2073568,360.67624896000007 L 324.55674325,359.89059922 L 324.0,359.0 L 323.85633802000007,358.72875176 L 323.70680576000007,358.4454348800001 L 323.54890973999994,358.15217911999997 L 323.38015648000004,357.85111424 L 323.1980525,357.54436999999996 L 323.00010432,357.23407616 L 322.78381846,356.92236248 L 322.54670144,356.61135872 L 322.28625978,356.30319464 L 322.0,356.0 L 321.0,356.0" stroke="#000000" stroke-width="1" fill="none" id="stroke_0" /><path d="M 378.0,364.0 L 378.0280000000001,364.00000000000006 L 378.1040000000001,364.0000000000001 L 378.2159999999999,363.99999999999994 L 378.35200000000003,364.0 L 378.5,364.0 L 378.648,364.0 L 378.784,364.0 L 378.8960000000001,364.00000000000006 L 378.97200000000004,364.0 L 379.0,364.0 L 379.3438124700001,365.7077881100001 L 379.7646665600001,367.2499132800001 L 380.2466872899999,368.6545167699999 L 380.77399968000003,369.94973984 L 381.33072875,371.16372375000003 L 381.90099952,372.32460976000004 L 382.46893701,373.46053913 L 383.01866624,374.5996531200001 L 383.53431223,375.77009299 L 384.0,377.0 L 384.48410204000004,378.47009993000006 L 384.9491603200001,379.97863424000013 L 385.40364107999983,381.51368170999996 L 385.85601056,383.06332112000007 L 386.314735,384.61563125 L 386.78828064000004,386.15869088 L 387.28511371999997,387.68057878999997 L 387.81370048,389.16937376 L 388.38250716,390.61315457 L 389.0,392.0 L 389.4595960000001,393.0466647 L 389.79244800000004,393.9655936000001 L 390.02445199999994,394.7757988999999 L 390.181504,395.4962928 L 390.2895,396.1460875 L 390.3743360000001,396.74419520000004 L 390.461908,397.3096281 L 390.57811200000003,397.8613984 L 390.748844,398.4185183 L 391.0,399.0 L 391.0,399.0" stroke="#000000" stroke-width="1" fill="none" id="stroke_1" /><path d="M 434.0,357.0 L 434.01412929,357.02524152 L 434.0546819200002,357.10308096000006 L 434.1189050299999,357.2366906399999 L 434.2040457600001,357.42924288000006 L 434.30735125,357.68390999999997 L 434.42606864000004,358.00386432000005 L 434.55744506999997,358.39227816 L 434.69872768000005,358.85232384000005 L 434.84716361000005,359.38717368000005 L 435.0,360.0 L 435.09868338000007,360.6730452100001 L 435.13031424000013,361.5031740800001 L 435.1118136599999,362.45872646999993 L 435.06010272000003,363.50804224 L 434.9921025,364.61946125 L 434.92473408,365.76132336 L 434.87491853999995,366.90196843 L 434.85957696,368.00973632 L 434.89563042000003,369.05296689 L 435.0,370.0 L 435.19570324000006,370.92147958000004 L 435.4704771200001,371.81808544000006 L 435.8116948799999,372.69735525999994 L 436.20672976000003,373.56682672000005 L 436.64295500000003,374.4340375 L 437.10774384,375.30652528 L 437.58846952,376.19182774 L 438.0725052800001,377.09748256000006 L 438.5472243600001,378.03102742000004 L 439.0,379.0 L 439.4857679400001,380.1196237000001 L 439.94874272000015,381.22431520000004 L 440.3986577799999,382.3263720999999 L 440.84524655999996,383.43809200000004 L 441.2982425,384.57177249999995 L 441.76737904000004,385.7397112 L 442.26238961999996,386.9542057 L 442.7930076800001,388.22755359999996 L 443.36896666,389.57205250000004 L 444.0,391.0 L 444.2795928600001,391.6376786900001 L 444.56775168000013,392.31929472000013 L 444.86296481999995,393.0335650299999 L 445.16372064,393.76920656 L 445.4685075,394.51493625 L 445.77581376,395.25947104 L 446.08412777999996,395.99152786999997 L 446.39193792000003,396.69982368 L 446.69773254000006,397.37307541 L 447.0,398.0 L 447.2990000000001,398.59900000000005 L 447.5920000000001,399.19200000000006 L 447.8729999999999,399.77299999999985 L 448.136,400.33600000000007 L 448.375,400.875 L 448.584,401.384 L 448.75699999999995,401.85699999999997 L 448.88800000000003,402.288 L 448.971,402.67100000000005 L 449.0,403.0 L 449.00100000000003,403.3020000000001 L 449.00800000000015,403.6160000000001 L 449.0269999999999,403.9539999999999 L 449.064,404.32800000000003 L 449.125,404.75 L 449.21600000000007,405.232 L 449.343,405.78599999999994 L 449.51200000000006,406.42400000000004 L 449.72900000000004,407.158 L 450.0,408.0 L 450.0,409.0 L 451.0,411.0 L 450.0,411.0" stroke="#000000" stroke-width="1" fill="none" id="stroke_2" /><path d="M 355.0,378.0 L 355.74102066000006,378.02879642000005 L 356.7502956800001,378.11127616000016 L 358.0071446199999,378.2415749399999 L 359.49088704,378.41382848 L 361.18084250000004,378.62217250000003 L 363.05633056,378.86074272 L 365.09667078,379.12367486 L 367.28118272000006,379.40510464000005 L 369.58918594000005,379.69916778000004 L 372.0,380.0 L 374.05825222000004,380.26383547000006 L 376.0678553600001,380.5364313600001 L 378.03386513999993,380.80918288999993 L 379.96133728,381.07348528 L 381.8553275,381.32073375000004 L 383.72089152,381.54232352 L 385.56308506,381.72964980999996 L 387.38696384,381.8741078400001 L 389.19758358,381.96709283 L 391.0,382.0 L 392.88700000000006,382.00000000000006 L 394.9360000000001,382.0000000000001 L 397.1289999999999,381.99999999999994 L 399.44800000000004,382.0 L 401.875,382.0 L 404.39200000000005,382.00000000000006 L 406.981,382.0 L 409.624,382.00000000000006 L 412.303,382.0 L 415.0,382.0 L 417.3400000000001,382.00000000000006 L 419.5600000000001,382.0000000000001 L 421.6599999999999,381.99999999999994 L 423.64,382.0 L 425.5,382.0 L 427.24,382.00000000000006 L 428.86,382.0 L 430.36,382.00000000000006 L 431.74,382.0 L 433.0,382.0 L 434.52527238000005,381.98516258 L 436.0987462400002,381.93835584000016 L 437.7169066599999,381.8561380599999 L 439.37623872000006,381.73506752 L 441.07322750000003,381.5717025 L 442.80435808000004,381.36260128000004 L 444.56611554,381.10432213999997 L 446.35498496,380.79342336 L 448.16745142,380.42646322 L 450.0,380.0 L 451.74127416000005,379.57359472 L 453.42424128000016,379.1699145600001 L 455.05066031999996,378.7826380399999 L 456.62229024,378.40544368 L 458.14089,378.03201 L 459.60821856000007,377.65601552000004 L 461.02603487999994,377.27113876 L 462.39609792000005,376.87105824 L 463.72016664000006,376.44945248 L 465.0,376.0 L 466.1690752800001,375.6136928000001 L 467.3538854400001,375.30420480000015 L 468.5511069599999,375.05825439999995 L 469.75741632000006,374.86256000000003 L 470.96949,374.70384 L 472.18400448000006,374.56881280000005 L 473.39763624,374.4441968 L 474.60706176,374.31671040000003 L 475.80895752000004,374.173072 L 477.0,374.0 L 477.8715074900001,373.84791321000006 L 478.62262912000017,373.6934924800001 L 479.2675506299999,373.5336202699999 L 479.82045776,373.36517904000004 L 480.29553625,373.18505125 L 480.70697184,372.99011936 L 481.06895027,372.77726583 L 481.39565728,372.54337312000007 L 481.70127861000003,372.28532369000004 L 482.0,372.0 L 484.0,371.0 L 487.0,370.0 L 489.0,370.0" stroke="#000000" stroke-width="1" fill="none" id="stroke_3" /><path d="M 433.0,218.0 L 433.486,217.70100000000002 L 434.3680000000001,217.4080000000001 L 435.6819999999999,217.12699999999992 L 437.464,216.864 L 439.75,216.625 L 442.576,216.416 L 445.97799999999995,216.243 L 449.9920000000001,216.11200000000002 L 454.654,216.02900000000002 L 460.0,216.0 L 466.12023451,215.97074861000004 L 472.42750048000016,215.91821728000005 L 478.8416415699999,215.89524026999993 L 485.2825014400001,215.95465184000003 L 491.66992375,216.14928625 L 497.92375216,216.53197776000002 L 503.96383033,217.15556062999997 L 509.7100019200001,218.07286912 L 515.08211059,219.33673749 L 520.0,221.0 L 522.37721564,222.11207446000003 L 524.5549987200001,223.46412768000005 L 526.5683684799999,225.09016142 L 528.45234416,227.02417744 L 530.241945,229.30017750000002 L 531.97219024,231.95216336 L 533.67809912,235.01413677999997 L 535.3946908800001,238.52009952000003 L 537.15698476,242.50405333999998 L 539.0,247.0 L 541.30557846,252.81687253 L 543.6374108800002,258.7676982400001 L 545.97685382,264.8425053099999 L 548.3052638400001,271.03132192 L 550.6039975000001,277.32417625 L 552.8544113600001,283.71109648000004 L 555.03786198,290.18211078999997 L 557.1357059200001,296.72724736 L 559.1292997400001,303.33653437 L 561.0,310.0 L 562.3622494500001,315.31954885000005 L 563.5794720000001,320.5816960000001 L 564.6675319499999,325.7646713499999 L 565.6422936,330.8467048 L 566.51962125,335.80602625 L 567.3153792,340.6208656 L 568.0454317499999,345.26945274999997 L 568.7256432,349.7300176 L 569.3718778499999,353.98079005 L 570.0,358.0 L 570.55177257,361.62298161000007 L 571.0511961600001,365.24471168000014 L 571.49692059,368.80541106999993 L 571.88759568,372.24530064000004 L 572.22187125,375.50460125 L 572.49839712,378.52353376 L 572.71582311,381.24231903 L 572.87279904,383.60117792000005 L 572.96797473,385.54033129000004 L 573.0,387.0 L 572.99694503,387.58766737000013 L 572.9846934400002,388.1472617600001 L 572.9586152099998,388.6736715899999 L 572.9140803200002,389.16178528 L 572.84645875,389.60649125 L 572.75112048,390.00267792 L 572.62343549,390.34523371 L 572.4587737600001,390.62904704000005 L 572.25250527,390.84900633 L 572.0,391.0 L 571.6545010600001,391.0685116000001 L 571.3942732800001,390.9438208 L 571.2077982199999,390.61766919999997 L 571.0835574399999,390.0817984 L 571.0100325,389.32795 L 570.97570496,388.34786560000003 L 570.96905638,387.13328679999995 L 570.97856832,385.67595520000003 L 570.99272234,383.9676124 L 571.0,382.0 L 570.0,376.0" stroke="#000000" stroke-width="1" fill="none" id="stroke_4" /><path d="M 442.0,224.0 L 442.05463000000003,223.65724147 L 442.23424000000017,223.21685856000005 L 442.5624099999999,222.66069028999993 L 443.06272,221.97057568 L 443.75874999999996,221.12835375 L 444.67408000000006,220.11586352 L 445.83228999999994,218.91494401 L 447.25696000000005,217.50743424 L 448.97167,215.87517323000003 L 451.0,214.0 L 454.61827529000004,210.77638241000005 L 458.5595203200001,207.46544448000003 L 462.83443182999986,204.12689946999996 L 467.45370656,200.82046064 L 472.42804125,197.60584124999997 L 477.76813264000003,194.54275456 L 483.48467747000007,191.69091383 L 489.58837248000003,189.11003232000002 L 496.08991441,186.85982329 L 503.0,185.0 L 510.2728189600001,183.47782386 L 517.3453132800001,182.29994848000004 L 524.1782031199999,181.44744241999993 L 530.73220864,180.90137424 L 536.96805,180.6428125 L 542.8464473600001,180.65282576 L 548.3281208799999,180.91248258 L 553.37379072,181.40285152 L 557.94417704,182.10500114 L 562.0,183.0 L 566.17838812,184.26305125000002 L 570.3921241600002,185.87111360000006 L 574.6297536399999,187.79788694999996 L 578.8798220799999,190.01707120000003 L 583.1308750000001,192.50236625000002 L 587.37145792,195.22747200000003 L 591.5901163599999,198.16608835 L 595.77539584,201.2919152 L 599.91584188,204.57865245 L 604.0,208.0 L 608.8892338,212.33061623 L 613.5574672000001,216.74370624000008 L 617.9801391999998,221.23079100999996 L 622.1326888000001,225.78339152000004 L 625.990555,230.39302874999998 L 629.5291768000001,235.05122368000002 L 632.7239932,239.74949729 L 635.5504432,244.47937056 L 637.9839658000001,249.23236447 L 640.0,254.0 L 641.7075606300001,258.96739455000005 L 643.1497126400001,264.04902880000003 L 644.3503542099999,269.22144664999996 L 645.3333835200001,274.46119200000004 L 646.1226987499999,279.74480875 L 646.74219808,285.04884080000005 L 647.21577969,290.34983205000003 L 647.5673417600001,295.62432640000003 L 647.82078247,300.84886775000007 L 648.0,306.0 L 647.99357915,311.67990542000007 L 647.6922592000002,317.84784256000006 L 647.1488290499999,324.3891407399999 L 646.4160776,331.18912928000003 L 645.54679375,338.1331375 L 644.5937664,345.10649472 L 643.60978445,351.99453026 L 642.6476368000001,358.68257344000006 L 641.76011235,365.05595358000005 L 641.0,371.0 L 640.5303757400002,375.27471349000007 L 640.1771667200002,379.08860352000005 L 639.9108525799999,382.4499194299999 L 639.70191296,385.36691056000006 L 639.5208275,387.84782625 L 639.3380758400001,389.90091584000004 L 639.1241376199999,391.53442867 L 638.84949248,392.75661408 L 638.48462006,393.57572141 L 638.0,394.0 L 637.62550106,394.1015116000001 L 637.2822732800001,394.0878208000001 L 636.9647982199998,393.96866919999997 L 636.66755744,393.7537984 L 636.3850325,393.45295 L 636.11170496,393.07586560000004 L 635.84205638,392.6322868 L 635.5705683200001,392.1319552 L 635.29172234,391.5846124 L 635.0,391.0 L 634.0,390.0" stroke="#000000" stroke-width="1" fill="none" id="stroke_5" /><path d="M 453.0,239.0 L 454.67800000000005,238.72900000000004 L 456.7040000000001,238.51200000000006 L 459.0659999999999,238.34299999999993 L 461.752,238.216 L 464.75,238.125 L 468.04800000000006,238.06400000000002 L 471.634,238.027 L 475.49600000000004,238.008 L 479.62200000000007,238.00099999999998 L 484.0,238.0 L 490.0011556200001,238.08889168000002 L 495.9729977600001,238.36939264000006 L 501.86808934,238.86224175999996 L 507.6389932800001,239.58817792000002 L 513.2382725,240.56794 L 518.61848992,241.82226688000003 L 523.7322084599999,243.37189744 L 528.5319910400001,245.23757056000002 L 532.97040058,247.44002512000003 L 537.0,250.0 L 540.4333017000002,252.70164720000005 L 543.8470560000001,255.8056064000001 L 547.2374846999999,259.25253999999995 L 550.6008096,262.98311040000004 L 553.9332525,266.93798 L 557.2310352000001,271.0578112 L 560.4903795,275.2832664 L 563.7075072,279.55500800000004 L 566.8786401,283.8136984 L 570.0,288.0 L 573.29967114,292.35553891 L 576.7538131200001,296.8785420800001 L 580.3045267799998,301.57658216999994 L 583.89391296,306.45723184 L 587.4640724999999,311.52806375 L 590.95710624,316.79665056000005 L 594.3151150199999,322.27056493 L 597.4801996799999,327.95737952 L 600.39446106,333.86466699000005 L 603.0,340.0 L 605.82428044,347.8459217700001 L 608.0057235200002,355.13185856000007 L 609.6083698799998,361.90564458999995 L 610.6962601600001,368.21511408 L 611.333435,374.10810125 L 611.58393504,379.63244032 L 611.51180092,384.83596550999994 L 611.18107328,389.76651104 L 610.65579276,394.47191113 L 610.0,399.0 L 609.43519704,402.6783389600001 L 608.8951587200002,406.3687148800001 L 608.3843318799999,410.05175231999993 L 607.90716336,413.70807584000005 L 607.4681,417.31831 L 607.0715886400001,420.86307936000003 L 606.72207612,424.32300848 L 606.4240092800001,427.67872192000004 L 606.1818349600001,430.91084424 L 606.0,434.0 L 605.8942559300001,436.31449801 L 605.8108566400002,438.45631008000015 L 605.7419015099998,440.4139852699999 L 605.67948992,442.17607264000003 L 605.61572125,443.73112125 L 605.54269488,445.06768016 L 605.45251019,446.17429843 L 605.33726656,447.03952512 L 605.18906337,447.65190929000005 L 605.0,448.0 L 604.79817713,448.11482287000007 L 604.6084774400002,448.05552256000016 L 604.4181733099998,447.8528266899999 L 604.21453712,447.53746288 L 603.98484125,447.14015875 L 603.71635808,446.69164192000005 L 603.39635999,446.22264000999996 L 603.01211936,445.76388064 L 602.55090857,445.34609143 L 602.0,445.0 L 600.0,442.0" stroke="#000000" stroke-width="1" fill="none" id="stroke_6" /><path d="M 393.0,239.0 L 392.6983996,238.99777015 L 392.3854208000001,238.98762720000008 L 392.0487971999999,238.96439104999993 L 391.67626240000004,238.9228816 L 391.25554999999997,238.85791875 L 390.77439360000005,238.7643224 L 390.2205268,238.63691244999998 L 389.58168320000004,238.4705088 L 388.8455964,238.25993135 L 388.0,238.0 L 384.79354987,237.00929026000003 L 381.11025376000015,235.95001408000005 L 376.8961330899999,234.85544301999994 L 372.0972092800001,233.75884864000005 L 366.65950375,232.69350250000002 L 360.52903791999995,231.69267616000002 L 353.65183321,230.78964118 L 345.97391104,230.01766912000002 L 337.44129283,229.41003154000003 L 328.0,229.0 L 321.41822601,228.83384657000002 L 314.90885888000014,228.75990816000007 L 308.5348938699999,228.81578358999994 L 302.35932624,229.03907168000003 L 296.44515125,229.46737124999999 L 290.85536416,230.13828112000004 L 285.65296022999996,231.08940010999999 L 280.90093472,232.35832704 L 276.66228289000003,233.98266073000002 L 273.0,236.0 L 270.75853466,237.56208689000002 L 268.6192844800001,239.22620192000008 L 266.54737421999994,241.04891062999994 L 264.50792864000005,243.08677856000003 L 262.4660725,245.39637125000002 L 260.38693056000005,248.03425424000002 L 258.23562757999997,251.05699307 L 255.97728832,254.52115328000002 L 253.57703754,258.48330041 L 251.0,263.0 L 247.55474021,269.0134099 L 243.90261728000004,275.0685456000001 L 240.08330986999994,281.1403090999999 L 236.13649664000005,287.2036024 L 232.10185625,293.2333275 L 228.01906736000004,299.20438640000003 L 223.92780863,305.09168109999996 L 219.86775872,310.8701136 L 215.87859629000002,316.51458590000004 L 212.0,322.0 L 209.12439280000004,326.29962767 L 206.57340000000008,330.5789865600001 L 204.38159179999997,334.7707084899999 L 202.5835384,338.80742528 L 201.21381,342.62176875 L 200.30697680000003,346.14637072000005 L 199.897609,349.31386301 L 200.0202768,352.05687744000005 L 200.7095504,354.30804583 L 202.0,356.0 L 202.24257435,356.0712160300001 L 202.52209280000005,355.9076006400001 L 202.84615344999997,355.53294760999995 L 203.2223544,354.97105072000005 L 203.65829374999998,354.24570375 L 204.1615696,353.38070048 L 204.73978004999998,352.39983469000003 L 205.4005232,351.32690016000004 L 206.15139715,350.18569067 L 207.0,349.0 L 211.0,341.0 L 215.0,340.0" stroke="#000000" stroke-width="1" fill="none" id="stroke_7" /><path d="M 350.0,248.0 L 349.3952236400001,248.03515403000006 L 348.7563507200001,248.13832544000007 L 348.0465654799999,248.30607820999995 L 347.22905216000004,248.53497632000003 L 346.266995,248.82158375 L 345.12357824000003,249.16246448000004 L 343.76198611999996,249.55418248999996 L 342.14540288,249.99330176 L 340.23701276,250.47638627 L 338.0,251.0 L 334.86487266000006,251.66239395000002 L 331.45979008,252.31237600000009 L 327.83057942,252.95773444999995 L 324.02306784,253.60625760000002 L 320.0830825,254.26573375 L 316.05645056000003,254.94395120000001 L 311.98899918,255.64869825 L 307.92655552,256.3877632 L 303.91494674,257.16893435000003 L 300.0,258.0 L 294.79305127000003,259.27590873 L 289.5526601600001,260.7924470400001 L 284.2836132899999,262.5530531099999 L 278.99069728,264.56116512 L 273.67869874999997,266.82022125 L 268.35240432,269.33365968 L 263.01660060999995,272.10491859 L 257.67607424000005,275.13743616 L 252.33561183,278.43465057000003 L 247.0,282.0 L 241.49649599000003,285.92931497000006 L 235.96518432000005,290.1427945600001 L 230.45845152999996,294.6731007899999 L 225.02868416000004,299.55289568 L 219.72826875,304.81484125 L 214.60959184000004,310.49159952 L 209.72503997,316.61583251 L 205.12699968000004,323.22020224000005 L 200.86785751000002,330.33737073000003 L 197.0,338.0 L 195.89671398000004,340.60439270000006 L 194.95777024000006,343.2296576000001 L 194.17181426,345.8509348999999 L 193.52749152,348.44336480000004 L 193.0134475,350.98208750000003 L 192.61832768,353.44224320000006 L 192.33077753999999,355.7989721 L 192.13944256000002,358.02741440000005 L 192.03296822000001,360.1027103 L 192.0,362.0 L 192.00000000000003,363.711 L 192.00000000000006,365.24800000000005 L 191.99999999999997,366.6169999999999 L 192.00000000000003,367.824 L 192.0,368.875 L 192.0,369.776 L 192.0,370.533 L 192.00000000000003,371.15200000000004 L 192.0,371.639 L 192.0,372.0 L 192.02900000000002,371.94200000000006 L 192.11200000000005,371.7760000000001 L 192.24299999999997,371.5139999999999 L 192.416,371.168 L 192.625,370.75 L 192.864,370.27200000000005 L 193.127,369.746 L 193.40800000000002,369.1840000000001 L 193.70100000000002,368.598 L 194.0,368.0 L 197.0,365.0" stroke="#000000" stroke-width="1" fill="none" id="stroke_8" /><path d="M 376.0,219.0 L 375.94419869,218.72186244 L 375.7793731200001,218.47773312000007 L 375.50939082999986,218.25303707999993 L 375.1381193600001,218.03319936000003 L 374.66942625,217.80364500000002 L 374.10717904,217.54979904000004 L 373.45524527,217.25708651999997 L 372.71749248000003,216.91093248000004 L 371.89778821000004,216.49676196000001 L 371.0,216.0 L 369.6844772200001,215.22727643000005 L 368.06810496000014,214.27221184000004 L 366.1649953399999,213.15924440999996 L 363.98926048000004,211.91281232 L 361.5550125,210.55735375 L 358.87636352000004,209.11730688000003 L 355.96742566,207.61710989 L 352.84231104,206.08120096000002 L 349.51513178000005,204.53401827000002 L 346.0,203.0 L 341.03441947000005,201.14116712 L 335.8292665600001,199.62016256000007 L 330.43817929,198.41520343999994 L 324.91479568,197.50450688 L 319.31275374999996,196.86629000000002 L 313.68569152000003,196.47876992000002 L 308.08724700999994,196.32016376 L 302.57105824000007,196.36868864000002 L 297.19076323,196.60256168 L 292.0,197.0 L 287.26304061,197.67949490000004 L 282.7733292800001,198.78620960000003 L 278.52456126999994,200.27831209999997 L 274.51043184,202.1139704 L 270.72463625,204.2513525 L 267.16086976,206.6486264 L 263.81282762999996,209.26396009999996 L 260.67420512,212.05552160000002 L 257.73869749,214.9814789 L 255.0,218.0 L 251.66673351,222.02646373000002 L 247.88383968000008,226.92429504000006 L 243.7727009699999,232.54785910999993 L 239.45469984000005,238.75152112 L 235.05121874999998,245.38964625 L 230.68364016000004,252.31659968 L 226.47334653000001,259.38674659 L 222.54172032000002,266.45445216 L 219.01014399000002,273.37408157000004 L 216.0,280.0 L 213.77023919000004,285.56981388 L 211.76077792000004,291.0824182400001 L 209.91648392999994,296.5367821599999 L 208.18222496,301.93187472000005 L 206.50286875,307.266665 L 204.82328304,312.54012208 L 203.08833556999997,317.75121504000003 L 201.24289408,322.89891296 L 199.23182631000003,327.98218492 L 197.0,333.0 L 195.14363899000003,336.91887715 L 193.37508672000004,340.6663712 L 191.70777832999997,344.23851104999983 L 190.15514896000002,347.6313256 L 188.73063375,350.84084375000003 L 187.44766784000004,353.8630944 L 186.31968637,356.69410645 L 185.36012448000002,359.32990880000006 L 184.58241731,361.76653035000004 L 184.0,364.0 L 183.61894376,365.72293041000006 L 183.27833088000006,367.3266060800001 L 182.97808311999995,368.80383666999995 L 182.71812223999999,370.14743184 L 182.49837,371.35020125 L 182.31874816000004,372.4049545600001 L 182.17917848,373.30450142999996 L 182.07958272000002,374.0416515200001 L 182.01988264000002,374.60921449000006 L 182.0,375.0 L 182.0,374.0 L 182.0,373.0 L 186.0,365.0" stroke="#000000" stroke-width="1" fill="none" id="stroke_9" /><path d="M 394.0,217.0 L 393.7037352600001,216.60934382 L 393.4088364800001,216.04211136000006 L 393.1061468199999,215.30540673999997 L 392.78650944,214.40633408 L 392.4407675,213.35199749999998 L 392.05976416000004,212.14950112000002 L 391.63434257999995,210.80594906 L 391.15534592000006,209.32844544 L 390.61361734,207.72409438 L 390.0,206.0 L 388.95188113000006,202.94527073 L 388.00264064000004,199.85972864000004 L 387.1108757099999,196.75948931 L 386.2351835200001,193.66066832000004 L 385.33416125,190.57938124999998 L 384.36640608,187.53174368 L 383.29051518999995,184.53387119 L 382.06508576000004,181.60187936 L 380.64871497,178.75188377 L 379.0,176.0 L 377.99146283000005,174.61608618000002 L 376.84660704000015,173.29736704000004 L 375.58393020999995,172.04305405999997 L 374.22192992000004,170.85235872 L 372.77910375,169.7244925 L 371.27394928,168.65866688 L 369.72496408999996,167.65409334 L 368.15064576000003,166.70998336000002 L 366.56949187000004,165.82554842000002 L 365.0,165.0 L 362.90124737,163.98869855 L 360.68588096000013,163.03735840000007 L 358.37252698999987,162.14943584999995 L 355.97981168,161.3283872 L 353.52636125,160.57766875 L 351.03080192,159.90073680000003 L 348.51175990999997,159.30104765 L 345.98786144,158.78205760000003 L 343.47773273,158.34722295 L 341.0,158.0 L 338.02608338000005,157.76718179 L 335.0701126400001,157.79868032000005 L 332.1481844599999,158.08977832999994 L 329.27639552,158.63575856 L 326.4708425,159.43190375 L 323.74762208000004,160.47349664 L 321.12283094,161.75581997 L 318.61256576000005,163.27415648000002 L 316.23292322000003,165.02378891 L 314.0,167.0 L 311.051936,170.30333661 L 307.7452688000001,174.75147808000006 L 304.11014659999995,180.17317786999993 L 300.1767176,186.39718944 L 295.97513,193.25226625 L 291.53553200000005,200.56716176 L 286.8880718,208.17062943 L 282.06289760000004,215.89142272000004 L 277.0901576,223.55829509000003 L 272.0,231.0 L 266.08841246,239.21495916000003 L 260.25621728000004,247.12020768000005 L 254.59127461999992,254.74730711999993 L 249.18144464000002,262.12781904 L 244.1145875,269.29330500000003 L 239.47856336,276.27532656 L 235.36123238,283.10544527999997 L 231.85045472000002,289.81522272 L 229.03409054000002,296.43622044000006 L 227.0,303.0 L 225.40897383000006,310.3352829600001 L 224.21369344000007,317.66624448000005 L 223.35667300999992,324.98323151999995 L 222.78042672,332.27659104 L 222.42746875,339.53667 L 222.24031328,346.75381536000003 L 222.16147449000002,353.91837408000004 L 222.13346656000002,361.02069312000003 L 222.09880367,368.05111944000004 L 222.0,375.0 L 221.89644609000004,379.59599003000005 L 221.79864672000005,383.7786678400001 L 221.71307342999995,387.5366930099999 L 221.64619776000004,390.85872512 L 221.60449125000002,393.73342375 L 221.59442544,396.14944848000005 L 221.62247187,398.09545889000003 L 221.69510208000003,399.56011456000005 L 221.81878761000002,400.53207507 L 222.0,401.0 L 222.22782773,401.17082287000005 L 222.47953024000006,401.26352256 L 222.74383550999997,401.28482668999993 L 223.00947152,401.24146288000003 L 223.26516625,401.14015875 L 223.49964768,400.98764192 L 223.70164379,400.79064000999995 L 223.85988256000002,400.55588064000005 L 223.96309197000002,400.29009143 L 224.0,400.0 L 224.0,397.0 L 227.0,386.0 L 230.0,382.0" stroke="#000000" stroke-width="1" fill="none" id="stroke_10" /><path d="M 403.0,193.0 L 403.06793482,192.55413246000003 L 403.2948793600001,191.82358208000005 L 403.7155437399999,190.81892721999998 L 404.36463808,189.55074624000002 L 405.27687249999997,188.0296175 L 406.48695712000006,186.26611936000003 L 408.02960206,184.27083018 L 409.93951744000003,182.05432832000002 L 412.25141338000003,179.62719214 L 415.0,177.0 L 419.85662253000004,172.68631855000004 L 425.48571584000007,167.94532640000006 L 431.7595515099999,162.93007185 L 438.55040112000006,157.7936032 L 445.73053625,152.68896875000002 L 453.17222848000006,147.7692168 L 460.74774938999997,143.18739564999998 L 468.32937056000003,139.09655360000002 L 475.78936357,135.64973895 L 483.0,133.0 L 489.00894518,131.33764661 L 494.90818144000013,130.11656448000002 L 500.7297708599999,129.29313967 L 506.50577552000004,128.82375824000002 L 512.2682575,128.66480625 L 518.0492788800001,128.77266976 L 523.8809017399999,129.10373482999998 L 529.7951881600001,129.61438752 L 535.82420022,130.26101389000002 L 542.0,131.0 L 548.1481067999999,131.98915877000002 L 554.4142672000002,133.44081536000007 L 560.7502021999998,135.32410318999996 L 567.1076328,137.60815568 L 573.4382800000001,140.26210625000002 L 579.6938648,143.25508832000003 L 585.8261081999999,146.55623531 L 591.7867312000001,150.13468064 L 597.5274548,153.95955773000003 L 603.0,158.0 L 608.8224302100001,163.01767920000003 L 613.9439836800001,168.41420800000006 L 618.4422866699998,174.16271119999996 L 622.39496544,180.2363136 L 625.87964625,186.60814 L 628.97395536,193.25131520000002 L 631.75551903,200.138964 L 634.3019635200001,207.24421120000002 L 636.6909150900001,214.5401816 L 639.0,222.0 L 642.2496928000002,232.69377124000002 L 645.0913664000001,242.1555891200001 L 647.5405535999997,250.51462187999994 L 649.6127872,257.90003776 L 651.3235999999999,264.441005 L 652.6885248000001,270.26669184 L 653.7230944,275.50626652 L 654.4428416000001,280.28889728 L 654.8632992,284.74375236000003 L 655.0,289.0 L 654.94983918,292.65829600000006 L 654.8038726400001,296.42060800000013 L 654.5688742599998,300.2680719999999 L 654.2516179200001,304.18182400000006 L 653.8588775000001,308.14300000000003 L 653.39742688,312.132736 L 652.87403994,316.132168 L 652.29549056,320.122432 L 651.66855262,324.084664 L 651.0,328.0 L 650.5124903200001,330.86126432000003 L 650.1101081600001,333.42422016000006 L 649.7848898399999,335.69562783999993 L 649.5288716800001,337.68224768000005 L 649.3340900000001,339.39084 L 649.1925811200001,340.82816512 L 649.09638136,342.00098335999996 L 649.03752704,342.91605504 L 649.00805448,343.58014048 L 649.0,344.0 L 648.0,344.0 L 648.0,344.0 L 647.0,344.0" stroke="#000000" stroke-width="1" fill="none" id="stroke_11" /><path d="M 427.0,208.0 L 427.34023733000004,207.6977695 L 427.8008438400001,207.37873600000006 L 428.44166131,207.0243865 L 429.32253152000004,206.616208 L 430.50329625,206.13568750000002 L 432.04379728000004,205.56431200000003 L 434.00387638999996,204.88356850000002 L 436.44337536,204.07494400000002 L 439.42213597,203.1199255 L 443.0,202.0 L 447.89762847000003,200.53903102 L 452.97298816000006,199.16192896000007 L 458.2096274899999,197.90899113999993 L 463.59109488,196.82051488000002 L 469.10093874999995,195.93679749999998 L 474.72270752000003,195.29813632 L 480.43994961,194.94482865999998 L 486.23621344000003,194.91717184 L 492.09504743,195.25546318 L 498.0,196.0 L 504.49399378000004,197.29573235000004 L 510.85948544000007,199.02951360000006 L 517.0868304599999,201.16243104999995 L 523.1663843200001,203.655572 L 529.0885025,206.47002375 L 534.8435404800001,209.56687360000004 L 540.42185374,212.90720885000002 L 545.81379776,216.45211680000006 L 551.00972802,220.16268475 L 556.0,224.0 L 561.97879749,228.71197827000006 L 567.9320595200002,233.33687776000005 L 573.8377954299999,237.89802148999993 L 579.67401456,242.41873248 L 585.41872625,246.92233375 L 591.04993984,251.43214832 L 596.54566467,255.97149921 L 601.8839100800001,260.56370944 L 607.0426854100001,265.23210203 L 612.0,270.0 L 615.5399817400001,273.85427348 L 618.6264579200001,277.8715014400001 L 621.31782798,282.03605315999994 L 623.6724913600001,286.33229792000003 L 625.7488475,290.744605 L 627.60529584,295.25734368 L 629.30023582,299.85488323999994 L 630.8920668800001,304.52159296 L 632.43918846,309.24184212 L 634.0,314.0 L 635.6557907,319.07569476000003 L 637.2140352000002,324.05361568 L 638.6816640999999,328.9557867199999 L 640.065608,333.80423184 L 641.3727974999999,338.620975 L 642.6101632000001,343.42804016 L 643.7846357,348.24745127999995 L 644.9031456,353.10123232 L 645.9726235,358.01140724 L 647.0,363.0 L 647.4050817300001,365.10506590000006 L 647.7583686400002,367.1427344000001 L 648.0538603099999,369.1211906999999 L 648.2855563200001,371.04862 L 648.44745625,372.9332075 L 648.53355968,374.78313840000004 L 648.5378661899999,376.6065979 L 648.4543753600001,378.41177120000003 L 648.2770867700001,380.2068435 L 648.0,382.0 L 647.7476222500001,383.41475921 L 647.5350080000001,384.65394048000013 L 647.3516107499998,385.72382226999986 L 647.1868840000001,386.63068304000006 L 647.0302812499999,387.38080125 L 646.871256,387.98045536000006 L 646.69926175,388.43592383 L 646.5037520000001,388.75348512000005 L 646.2741802500001,388.93941769 L 646.0,389.0 L 645.0,389.0" stroke="#000000" stroke-width="1" fill="none" id="stroke_12" /><path d="M 397.0,455.0 L 397.02442240000005,454.69779885 L 397.12683520000013,454.3832848000001 L 397.3509567999999,454.0445919499998 L 397.74050559999995,453.6698544 L 398.3392,453.24720625 L 399.1907584,452.76478160000005 L 400.3388992,452.21071455 L 401.8273408,451.5731392 L 403.6998016,450.84018965000007 L 406.0,450.0 L 408.5352326000001,449.13842762000013 L 410.92826880000007,448.3994905600001 L 413.1794961999999,447.7756649399999 L 415.28930240000005,447.25942688 L 417.25807499999996,446.8432525 L 419.0862016,446.5196179200001 L 420.7740698,446.28099926 L 422.32206720000005,446.11987264000004 L 423.7305814,446.02871418 L 425.0,446.0 L 425.93261800000005,445.9722799100001 L 426.9248640000001,445.90143968000007 L 427.9683259999999,445.8059593699998 L 429.05459200000007,445.70431904000003 L 430.17525,445.61499875 L 431.321888,445.5564785600001 L 432.486094,445.54723852999996 L 433.65945600000003,445.60575872000004 L 434.83356200000003,445.75051919 L 436.0,446.0 L 438.2122388300001,446.65889420999997 L 440.18326944000006,447.3805628800001 L 441.9275250099999,448.14489106999986 L 443.45943872,448.93176384000003 L 444.79344375,449.72106625000004 L 445.94397328,450.49268336 L 446.92546049,451.22650023 L 447.75233856,451.90240192000005 L 448.43904067,452.50027349 L 449.0,453.0 L 449.770829,453.75083931000006 L 450.4699520000001,454.5642892800002 L 451.1100229999999,455.4293009699999 L 451.70369600000004,456.33482544000003 L 452.263625,457.26981375 L 452.802464,458.22321696 L 453.33286699999996,459.18398613 L 453.86748800000004,460.14107232000003 L 454.41898100000003,461.08342659000004 L 455.0,462.0 L 455.0,463.0 L 456.0,463.0" stroke="#000000" stroke-width="1" fill="none" id="stroke_13" /></g></svg>