<svg width="800" height="600" xmlns="http://www.w3.org/2000/svg"><g><path d="M 476.0,285.0 L 476.32902368000003,285.03212876000003 L 476.7165286400001,285.12312448000006 L 477.16316575999986,285.26490132 L 477.66958592000003,285.44937344 L 478.23644,285.668455 L 478.86437888,285.9140601600001 L 479.55405344,286.17810308 L 480.30611456,286.45249792000004 L 481.12121312,286.72915883999997 L 482.0,287.0 L 483.2479712000001,287.34762800000004 L 484.6037312000002,287.6960144000001 L 486.0478615999999,288.0409057999999 L 487.560944,288.3780488 L 489.12356,288.70319 L 490.7162912,289.01207600000004 L 492.31971919999995,289.3004534 L 493.9144256000001,289.5640688000001 L 495.480992,289.79866880000003 L 497.0,290.0 L 498.31028815,290.22089802 L 499.78342560000016,290.5613785600001 L 501.4158198499999,290.99152333999996 L 503.20387840000006,291.48141408000004 L 505.14400875,292.0011325 L 507.23261840000004,292.52076032 L 509.46611485,293.01037926 L 511.84090560000004,293.44007104 L 514.35339815,293.77991738000003 L 517.0,294.0 L 521.8510513599999,294.2150064 L 526.8065996800002,294.33976320000005 L 531.8482043199999,294.3901967999999 L 536.95742464,294.38223360000006 L 542.11582,294.3318 L 547.30494976,294.25482239999997 L 552.5063732799999,294.16722719999996 L 557.7016499200001,294.0849408 L 562.87233904,294.0238896 L 568.0,294.0 L 572.6630000000001,294.00100000000003 L 576.5040000000001,294.0080000000001 L 579.601,294.0269999999999 L 582.032,294.064 L 583.875,294.125 L 585.2080000000001,294.216 L 586.1089999999999,294.34299999999996 L 586.6560000000001,294.51200000000006 L 586.927,294.72900000000004 L 587.0,295.0 L 586.9575461700001,295.3033249200001 L 586.8401641600002,295.63404416000003 L 586.6628231899998,296.0232744399999 L 586.4404924800001,296.50213248 L 586.18814125,297.10173499999996 L 585.92073872,297.85319872 L 585.6532541099999,298.78764035999995 L 585.4006566400001,299.93617664 L 585.17791553,301.32992428 L 585.0,303.0 L 584.8452107,305.09619276 L 584.7223408000002,307.21124928 L 584.6239862999998,309.3634129199999 L 584.5427432,311.57092704 L 584.4712075,313.852035 L 584.4019752,316.22498016000003 L 584.3276423,318.70800588 L 584.2408048000001,321.31935552000004 L 584.1340587,324.07727244 L 584.0,327.0 L 583.92586694,329.27616937000005 L 583.9171203200002,331.8883337600001 L 583.9804179799999,334.80414758999996 L 584.12241776,337.99126528000005 L 584.3497775,341.41734125 L 584.6691550400001,345.05002992000004 L 585.08720822,348.85698571 L 585.61059488,352.8058630400001 L 586.24597286,356.86431633 L 587.0,361.0 L 587.46055604,363.36115277000005 L 587.8899651200002,365.5819641600001 L 588.2865276799998,367.6516327899999 L 588.64854416,369.55935728 L 588.9743149999999,371.29433625 L 589.26214064,372.84576832000005 L 589.5103215199999,374.20285211 L 589.71715808,375.35478624000007 L 589.88095076,376.29076933 L 590.0,377.0 L 590.1510867900001,377.87050748999997 L 590.2985075200002,378.61462912000013 L 590.4393797299998,379.24055062999986 L 590.57082096,379.75645776 L 590.68994875,380.17053625 L 590.79388064,380.49097184 L 590.87973417,380.72595027 L 590.9446268800001,380.8836572800001 L 590.98567631,380.97227861 L 591.0,381.0 L 588.51479075,381.01009854 L 585.8792560000002,381.0359059200001 L 583.1235352499999,381.0706897799999 L 580.277768,381.10771776 L 577.37209375,381.14025749999996 L 574.436652,381.16157664 L 571.50158225,381.16494281999996 L 568.597024,381.14362368 L 565.7531167500001,381.09088686 L 563.0,381.0 L 559.3635570200001,380.83720023 L 555.6853961600002,380.64802944000013 L 551.98419854,380.43094340999994 L 548.2786452800001,380.18439792000004 L 544.5874175,379.90684875 L 540.9291963200001,379.59675168 L 537.32266286,379.25256248999995 L 533.7864982400001,378.87273696000005 L 530.33938358,378.45573087 L 527.0,378.0 L 522.49730319,377.38247163000005 L 518.0747507200002,376.8448934400001 L 513.7358465299999,376.38374480999994 L 509.48409455999996,375.99550512 L 505.32299875,375.67665375 L 501.2560630400001,375.4236700800001 L 497.28679136999995,375.23303349 L 493.41868768000006,375.10122336000006 L 489.65525591000005,375.02471907000006 L 486.0,375.0 L 484.2860000000001,375.00000000000006 L 482.7280000000001,375.0000000000001 L 481.30199999999996,374.99999999999994 L 479.984,375.0 L 478.75,375.0 L 477.576,375.00000000000006 L 476.438,375.0 L 475.312,375.00000000000006 L 474.17400000000004,375.00000000000006 L 473.0,375.0 L 471.8310000000001,375.00000000000006 L 470.7280000000001,375.0000000000001 L 469.69699999999983,374.99999999999994 L 468.744,375.0 L 467.875,375.0 L 467.096,375.00000000000006 L 466.41299999999995,375.0 L 465.8320000000001,375.00000000000006 L 465.35900000000004,375.00000000000006 L 465.0,375.0 L 465.0159052700001,374.8256778600001 L 465.0654409600001,374.31352128000015 L 465.15133688999987,373.4797450199999 L 465.27632288000007,372.34056384 L 465.44312875,370.9121925 L 465.65448432000005,369.21084576000004 L 465.9131194099999,367.25273838 L 466.2217638400001,365.05408512 L 466.58314743000005,362.63110074 L 467.0,360.0 L 467.93023557000004,354.6273668400001 L 468.8615545600001,349.7879587200001 L 469.7743643899999,345.4295356799999 L 470.64907248000003,341.49985776 L 471.46608625,337.946685 L 472.20581312,334.71777744 L 472.84866050999995,331.76089512 L 473.37503584,329.02379808 L 473.76534653,326.45424636 L 474.0,324.0 L 474.1201639600001,321.93272392 L 474.22290848000017,319.91430656000006 L 474.3130855199999,317.9320322399999 L 474.39554704,315.97318528 L 474.475145,314.02504999999996 L 474.55673136,312.07491072 L 474.64515808,310.11005176 L 474.74527712,308.11775744 L 474.86194044,306.08531208 L 475.0,304.0 L 475.08889893,302.23334681 L 475.1074870400001,300.51575808000007 L 475.06638930999986,298.83438907 L 474.97623072,297.17639504 L 474.84763625,295.52893125 L 474.69123088000003,293.87915296000006 L 474.51763959000004,292.21421542999997 L 474.33748736000007,290.52127392 L 474.16139917000004,288.78748369 L 474.0,287.0 L 473.93987208000004,286.10248346000003 L 473.9049830400001,285.20392448000007 L 473.8908789599999,284.3045070199999 L 473.89310592000004,283.40441504000006 L 473.90721,282.5038325 L 473.92873728000006,281.60294336000004 L 473.95323383999994,280.70193158 L 473.97624576,279.80098112 L 473.99331912,278.90027594000003 L 474.0,278.0 L 474.0,276.0" stroke="#000000" stroke-width="1" fill="none" id="stroke_0" /><path d="M 378.31457,281.0 L 378.20719676000004,281.0 L 377.8960896800001,281.00000000000006 L 377.39776771999993,280.99999999999994 L 376.72874984000003,281.0 L 375.905555,281.0 L 374.94470216,281.0 L 373.86271028,281.0 L 372.67609832000005,281.0 L 371.4013852400001,281.0 L 370.05509,281.0 L 362.61054508,281.0 L 355.6505558400001,281.00000000000006 L 349.1090465599999,280.99999999999994 L 342.91994152,281.0 L 337.01716500000003,281.0 L 331.33464128,281.0 L 325.80629464000003,281.0 L 320.36604936000003,281.0 L 314.94782972,281.0 L 309.48556,281.0 L 304.84069152000006,280.98993359 L 300.2999957600002,280.96420832000007 L 295.91322124,280.9295351299999 L 291.73011648,280.89262496 L 287.80043,280.86018875 L 284.17391032,280.83893744 L 280.90030596,280.83558196999996 L 278.02936544,280.85683328000005 L 275.61083728000006,280.90940231 L 273.69447,281.0 L 271.45675101000006,281.14973813999995 L 269.1848584800001,281.29637632000015 L 266.89454006999995,281.4369321799999 L 264.60154344000006,281.56842336 L 262.32161625,281.68786750000004 L 260.07050616000004,281.79228224 L 257.86396083,281.87868521999997 L 255.71772792000004,281.94409408 L 253.64755509000003,281.98552646 L 251.66919000000001,282.0 L 250.67193991000005,282.02913095 L 249.86911928000012,282.11246560000006 L 249.24033056999997,282.24391664999996 L 248.76517624000002,282.41739679999995 L 248.42325875,282.62681875 L 248.19418056000004,282.8660952 L 248.05754413,283.12913885 L 247.99295192000002,283.40986240000007 L 247.98000639000003,283.70217855 L 247.99831,284.0 L 248.24342670000004,285.57703546000005 L 248.68929560000007,287.2605004800001 L 249.31668489999996,289.04573101999995 L 250.10636280000003,290.92806304000004 L 251.0390975,292.90283250000005 L 252.0956572,294.96537536000005 L 253.2568101,297.11102758 L 254.50332440000005,299.33512512000004 L 255.81596830000004,301.63300394000004 L 257.17551000000003,304.0 L 258.5935444500001,306.4497127 L 260.0760636000001,308.9900896000001 L 261.59543114999997,311.6079888999999 L 263.12401080000006,314.29026880000004 L 264.63416625,317.0237875 L 266.0982612,319.7954032 L 267.48865935000003,322.59197409999996 L 268.77772440000007,325.4003584 L 269.93782005,328.2074143 L 270.94131000000004,331.0 L 272.5826655300001,336.03675162 L 274.04626104000016,340.62400256000006 L 275.35374891,344.8022529399999 L 276.5267815200001,348.61200288 L 277.58701125000005,352.0937525 L 278.5560904800001,355.28800192 L 279.45567159,358.23525126 L 280.30740696000004,360.97600064000005 L 281.13294897000003,363.55075018 L 281.95395,366.0 L 282.73392811,368.28890857000005 L 283.42608248000005,370.3561193600001 L 284.0365871699999,372.20235998999993 L 284.57161624,373.82835808000004 L 285.03734375,375.23484125 L 285.43994376000006,376.42253712 L 285.78559033,377.39217331 L 286.08045752000004,378.14447744000006 L 286.33071939,378.68017713000006 L 286.54255,379.0 L 286.72873496000005,379.1821555000001 L 286.9012216800001,379.3082608000001 L 287.06492691999995,379.38415509999993 L 287.22476744,379.4156776000001 L 287.38566000000003,379.40866750000004 L 287.55252136,379.368964 L 287.73026827999996,379.3024063 L 287.92381752000006,379.2148336000001 L 288.13808584000003,379.11208510000006 L 288.37799,379.0 L 289.19463828000005,378.60983860000005 L 290.2121058400001,378.1056448000001 L 291.43998475999996,377.51269419999994 L 292.88786712,376.85626240000005 L 294.56534500000004,376.16162499999996 L 296.48201048000004,375.45405760000006 L 298.64745564,374.7588358 L 301.07127256,374.1012352 L 303.76305332000004,373.5065314 L 306.73239,373.0 L 311.3278259700001,372.4516777900001 L 315.8492409600001,372.1335155200001 L 320.31617558999994,372.0048967299999 L 324.74817048000006,372.02520496000005 L 329.16476624999996,372.15382375 L 333.58550352000003,372.3501366400001 L 338.02992291,372.57352717 L 342.51756504,372.78337888000004 L 347.06797053,372.93907531 L 351.70068000000003,373.0 L 355.6782785700001,372.99790734000004 L 359.8393245600001,373.0014483200001 L 364.08946538999993,373.0253513799999 L 368.3343484800001,373.08434496 L 372.47962125000004,373.1931575 L 376.4309311200001,373.36651744000005 L 380.09392551,373.61915322 L 383.37425184000006,373.96579328 L 386.17755753,374.42116606 L 388.40949,375.0 L 389.26281518,375.29743149000006 L 390.15354184000006,375.62225952000006 L 391.07301065999997,375.9644244299999 L 392.01256232,376.31386656 L 392.96353750000003,376.66052625 L 393.91727688000003,376.99434384 L 394.86512114,377.30525966999994 L 395.79841096,377.58321408000006 L 396.70848702,377.81814741 L 397.58669,378.0 L 398.10962839000007,378.09363735 L 398.5927015200001,378.1791552000001 L 399.03787132999986,378.25179524999993 L 399.44709976,378.3067992 L 399.82234874999995,378.33940875 L 400.16558024000005,378.3448656 L 400.47875616999994,378.31841145 L 400.76383848,378.25528800000006 L 401.02278911,378.15073695 L 401.25757,378.0 L 401.89434283,377.29080702 L 402.4038282400001,376.28595936000005 L 402.8036376099999,375.0054269399999 L 403.11138232,373.46917968 L 403.34467374999997,371.69718750000004 L 403.52112328000004,369.70942032000005 L 403.65834229,367.52584806 L 403.77394216,365.16644064 L 403.88553427,362.65116798 L 404.01072999999997,360.0 L 404.11885558,356.79309455000003 L 404.1149754400001,353.7584704000001 L 404.0091382599998,350.89043085 L 403.81139272,348.1832792 L 403.53178749999995,345.63131875 L 403.18037128000003,343.2288528 L 402.76719274,340.97018464999996 L 402.30230056000005,338.84961760000004 L 401.79574342,336.86145495 L 401.25757,335.0 L 400.68634754000004,333.22663939000006 L 400.07901672000014,331.50360672000016 L 399.44318637999993,329.8264757299999 L 398.78646535999997,328.19082016 L 398.1164625,326.59221375000004 L 397.44078664,325.02623024 L 396.76704662,323.48844336999997 L 396.10285128000004,321.97442688 L 395.45580946000007,320.47975451 L 394.83353,319.0 L 394.3491427500001,317.80881696000006 L 393.90196840000004,316.67847008000007 L 393.4878270499999,315.60207771999995 L 393.10253880000005,314.57275824000004 L 392.74192374999996,313.58363 L 392.401802,312.62781136 L 392.07799365,311.69842067999997 L 391.7663188,310.78857632 L 391.46259755,309.89139664000004 L 391.16265,309.0 L 390.61926778000003,307.51425106000005 L 390.0180058400001,306.0822732800001 L 389.3723172599999,304.6910482199999 L 388.69565512,303.32755743999996 L 388.0014725,301.97878249999997 L 387.30322248000004,300.63170496000004 L 386.61435814,299.27330638 L 385.94833256000004,297.89056832000006 L 385.31859882000003,296.47047234 L 384.73861,295.0 L 384.22806055,293.53327861 L 383.7920980000001,292.1316572800001 L 383.4223550499999,290.79295026999995 L 383.1104644,289.51497184000004 L 382.84805875,288.29553625 L 382.62677080000003,287.13245776 L 382.43823325,286.02355063 L 382.27407880000004,284.96662912 L 382.12594015,283.95950749 L 381.98545,283.0 L 381.91400557000003,282.43527426 L 381.8725501600001,281.9219148800001 L 381.8557915899999,281.45438662 L 381.85843768000007,281.02715424 L 381.87519625,280.6346825 L 381.90077512000005,280.27143616 L 381.92988211,279.93187997999996 L 381.95722504,279.61047872000006 L 381.97751173000006,279.30169714 L 381.98545,279.0 L 381.98545,279.0 L 381.98545,278.0" stroke="#000000" stroke-width="1" fill="none" id="stroke_1" /><path d="M 473.0,329.0 L 472.72700000000015,329.0 L 472.4960000000001,329.0000000000001 L 472.2889999999999,328.9999999999999 L 472.088,329.0 L 471.875,329.0 L 471.63200000000006,329.0 L 471.341,329.0 L 470.98400000000004,329.0 L 470.543,329.0 L 470.0,329.0 L 468.7420000000001,329.0 L 467.3760000000001,329.0000000000001 L 465.9139999999999,328.9999999999999 L 464.368,329.0 L 462.75,329.0 L 461.072,329.0 L 459.346,329.0 L 457.58400000000006,329.0 L 455.79800000000006,329.0 L 454.0,329.0 L 452.2300000000001,329.0 L 450.52000000000015,329.0000000000001 L 448.8699999999999,328.9999999999999 L 447.28000000000003,329.0 L 445.75,329.0 L 444.28,329.0 L 442.87,329.0 L 441.52000000000004,329.0 L 440.23,329.0 L 439.0,329.0 L 438.04200000000003,329.0 L 436.97600000000017,329.0000000000001 L 435.81399999999996,328.9999999999999 L 434.5680000000001,329.0 L 433.25,329.0 L 431.87200000000007,329.0 L 430.446,329.0 L 428.98400000000004,329.0 L 427.49800000000005,329.0 L 426.0,329.0 L 422.06000000000006,329.0 L 418.60000000000014,329.0000000000001 L 415.55999999999995,328.9999999999999 L 412.88,329.0 L 410.5,329.0 L 408.36,329.0 L 406.4,329.0 L 404.56000000000006,329.0 L 402.78000000000003,329.0 L 401.0,329.0 L 398.0,329.0 L 398.0,329.0 L 397.0,329.0" stroke="#000000" stroke-width="1" fill="none" id="stroke_2" /><path d="M 579.0,337.0 L 580.4436913700001,337.32308981 L 581.8220137600002,337.6998748800001 L 583.2058395899999,338.14162866999993 L 584.6660412800001,338.65962464 L 586.27349125,339.26513624999995 L 588.09906192,339.96943696 L 590.21362571,340.78380023 L 592.6880550400001,341.71949952 L 595.59322233,342.78780829000004 L 599.0,344.0 L 601.06826215,344.71138742000005 L 603.1576272000002,345.4020857600001 L 605.2794930499999,346.07057113999997 L 607.4452576000001,346.71531968 L 609.6663187500001,347.3348075 L 611.9540744000001,347.9275107200001 L 614.3199224499999,348.49190546 L 616.7752608000001,349.02646784 L 619.3314873500001,349.52967398 L 622.0,350.0 L 624.70358695,350.57627848000004 L 627.4449520000002,351.38539584000006 L 630.2096294499999,352.38368095999994 L 632.9831536,353.52746271999996 L 635.75105875,354.77306999999996 L 638.4988792,356.07683168000005 L 641.2121492499999,357.39507663999996 L 643.8764032000001,358.68413376 L 646.47717535,359.90033192000004 L 649.0,361.0 L 650.58788302,361.67413047 L 651.8677657600001,362.2573913600001 L 652.8728247399997,362.76934788999995 L 653.63623648,363.22956528 L 654.1911775,363.65760875 L 654.57082432,364.07304352 L 654.80835346,364.49543480999995 L 654.93694144,364.94434784000003 L 654.9897647800001,365.43934783 L 655.0,366.0 L 654.941,367.26000000000005 L 654.7680000000001,368.6400000000001 L 654.4869999999999,370.13999999999993 L 654.1040000000002,371.76000000000005 L 653.625,373.5 L 653.056,375.36 L 652.403,377.34 L 651.672,379.44000000000005 L 650.869,381.66 L 650.0,384.0 L 648.0,391.0 L 647.0,395.0 L 647.0,397.0" stroke="#000000" stroke-width="1" fill="none" id="stroke_3" /><path d="M 272.0,334.0 L 271.66758242000003,334.08253941000004 L 271.2714041600001,334.3156956800001 L 270.81307694,334.67777586999995 L 270.29421248000006,335.14708704000003 L 269.7164225,335.70193625 L 269.08131872,336.32063056 L 268.39051285999994,336.98147703 L 267.64561664,337.66278272 L 266.84824178,338.34285469 L 266.0,339.0 L 264.45699861,340.11740635 L 262.9192076800001,341.20330880000006 L 261.3715900699999,342.25973744999993 L 259.79910864,343.28872240000004 L 258.18672625,344.29229375 L 256.51940576000004,345.2724816 L 254.78211003,346.23131605000003 L 252.95980192000002,347.1708272 L 251.03744429,348.09304515 L 249.0,349.0 L 246.97027712000002,349.9103876 L 245.08542976000007,350.8280448000001 L 243.35193983999994,351.7327132 L 241.77628928000001,352.6041344 L 240.36496,353.42205 L 239.12443392000003,354.1662016 L 238.06119295999997,354.81633079999995 L 237.18171904000002,355.3521792 L 236.49249408,355.75348840000004 L 236.0,356.0 L 235.74849959000002,356.0949936700001 L 235.54923392000006,356.1629529600001 L 235.40357332999992,356.2227662899999 L 235.31288816000003,356.29332208000005 L 235.27854875,356.39350875 L 235.30192544000002,356.54221472000006 L 235.38438857,356.75832841 L 235.52730848,357.06073824000003 L 235.73205551,357.46833263 L 236.0,358.0 L 236.3256837,358.63141192 L 236.70909760000004,359.36502016000003 L 237.15978589999995,360.2598834399999 L 237.6872928,361.37506048000006 L 238.3011625,362.76961 L 239.01093920000002,364.50259072000006 L 239.82616709999996,366.63306135999994 L 240.75639040000002,369.22008064 L 241.8111533,372.32270728000003 L 243.0,376.0 L 243.35789591000002,377.32735207 L 243.68507008000006,378.9256921600001 L 243.97988516999993,380.7577870899999 L 244.24070384,382.78640368000003 L 244.46588875,384.97430875 L 244.65380256,387.28426912 L 244.80280792999997,389.67905161 L 244.91126752000002,392.12142304 L 244.97754399000002,394.57415023 L 245.0,397.0 L 245.0,400.0 L 246.0,401.0" stroke="#000000" stroke-width="1" fill="none" id="stroke_4" /><path d="M 354.0,417.0 L 354.334022,417.3476985800001 L 354.7298560000001,417.77848384000004 L 355.1781539999999,418.2738900599999 L 355.669568,418.81545152 L 356.19475,419.3847025 L 356.74435200000005,419.96317728 L 357.309026,420.5324101399999 L 357.87942400000003,421.07393536000006 L 358.446198,421.56928722 L 359.0,422.0 L 361.55987847,423.88559464 L 363.78071776000013,425.59124832000015 L 365.73466769,427.1439726799999 L 367.49387808,428.57077936 L 369.13049875,429.89868 L 370.71667952,431.15468624 L 372.32457021,432.36580972 L 374.02632064000005,433.55906208000005 L 375.89408062999996,434.76145496000004 L 378.0,436.0 L 380.04503816000005,437.09185749000005 L 382.21435168000016,438.1249539200001 L 384.53258411999997,439.0970032299999 L 387.02437904,440.00571936 L 389.71438,440.84881625 L 392.62723056000004,441.62400784000005 L 395.78757428000006,442.32900807 L 399.22005472,442.96153088000005 L 402.94931544,443.51929021 L 407.0,444.0 L 411.36412797,444.3897643300001 L 415.49118496000017,444.62616224000016 L 419.3897285899999,444.7175591099999 L 423.06831648,444.67232032 L 426.53550625,444.49881125 L 429.79985552000005,444.20539728 L 432.86992191,443.80044379000003 L 435.75426304000007,443.29231616000004 L 438.46143653,442.68937976999996 L 441.0,442.0 L 443.7511972700001,441.29703596 L 446.6820409600001,440.73836448000014 L 449.76256388999997,440.2867895199999 L 452.96279888,439.90511504 L 456.25277874999995,439.556145 L 459.60253632000007,439.20268336000004 L 462.9821044099999,438.80753408 L 466.36151584000004,438.33350112000005 L 469.71080343000006,437.74338844 L 473.0,437.0 L 475.58579374000004,436.2648941300001 L 477.84494112000016,435.47643104000014 L 479.8011183799999,434.64087850999994 L 481.47800176000004,433.76450432 L 482.8992675,432.85357625 L 484.08859184000005,431.91436208000005 L 485.0696510199999,430.95312959 L 485.86612128,429.97614656 L 486.50167885999997,428.98968077000006 L 487.0,428.0 L 487.57633129,426.82973691 L 488.2885235200001,425.6000780800001 L 489.11260122999994,424.3391521699999 L 490.0245889600001,423.07508784000004 L 491.00051125,421.83601375 L 492.01639264000005,420.65005856000005 L 493.04825767,419.54535093000004 L 494.07213088000003,418.5500195200001 L 495.06403681000006,417.69219299 L 496.0,417.0 L 498.0,415.0" stroke="#000000" stroke-width="1" fill="none" id="stroke_5" /><path d="M 399.0,250.0 L 398.93175852,250.02140811000004 L 398.7306969600001,250.07167328000006 L 398.4023096399999,250.12985676999995 L 397.95209088,250.17501984000003 L 397.385535,250.18622375 L 396.70813632000005,250.14252976 L 395.92538916,250.02299913 L 395.04278784,249.80669312 L 394.06582668,249.47267299 L 393.0,249.0 L 389.61289913999997,247.16297254000003 L 386.34538752000003,245.06763392000008 L 383.20987757999995,242.72226977999998 L 380.21878176000007,240.13516576000004 L 377.3845125,237.31460750000002 L 374.71948224,234.26888064000002 L 372.23610341999995,231.00627082 L 369.94678848,227.53506368 L 367.86394986,223.86354486000002 L 366.0,220.0 L 364.63228732,216.50893298000003 L 363.5167481600001,212.83481664000007 L 362.6311268399999,208.99555005999994 L 361.95316768000004,205.00903232000002 L 361.46061499999996,200.89316250000002 L 361.13121312000004,196.66583968 L 360.94270636,192.34496294000002 L 360.87283904000003,187.94843136000003 L 360.89935548000005,183.49414402 L 361.0,179.0 L 361.4017913900001,172.07706676 L 362.16431232000014,165.77215488000004 L 363.2521399299999,160.02208411999996 L 364.62985136,154.76367424 L 366.26202375,149.933745 L 368.11323424,145.46911616 L 370.14805997,141.30660748 L 372.33107808000005,137.38303872 L 374.62686571,133.63522964 L 377.0,130.0 L 382.0,122.0 L 384.0,120.0" stroke="#000000" stroke-width="1" fill="none" id="stroke_6" /><path d="M 406.0,241.0 L 405.69900000000007,240.971 L 405.39200000000005,240.88800000000006 L 405.0729999999999,240.75699999999995 L 404.73600000000005,240.584 L 404.375,240.375 L 403.98400000000004,240.136 L 403.55699999999996,239.873 L 403.088,239.592 L 402.571,239.299 L 402.0,239.0 L 401.17249521,238.45603568000004 L 399.95109408000013,237.46590464000005 L 398.42746646999996,236.09224975999996 L 396.69328224000003,234.39771392 L 394.84021125000004,232.44494 L 392.95992336000006,230.29657088000002 L 391.14408843,228.01524944 L 389.48437632,225.66361856000003 L 388.07245689,223.30432112 L 387.0,221.0 L 386.10814164000004,218.33737739 L 385.41138432000014,215.51388032000003 L 384.88588667999994,212.53672192999994 L 384.50780736,209.41311536 L 384.253305,206.15027375 L 384.09853824000004,202.75541024 L 384.01966572,199.23573797 L 383.99284608000005,195.59847008000003 L 383.99423796,191.85081971000002 L 384.0,188.0 L 384.0610000000001,183.86100000000002 L 384.2480000000001,179.84800000000004 L 384.56699999999995,175.96699999999996 L 385.024,172.22400000000002 L 385.625,168.625 L 386.376,165.17600000000002 L 387.283,161.88299999999998 L 388.352,158.752 L 389.58900000000006,155.78900000000002 L 391.0,153.0 L 396.0,144.0 L 400.0,140.0 L 400.0,139.0" stroke="#000000" stroke-width="1" fill="none" id="stroke_7" /><path d="M 435.0,236.0 L 434.70879730000007,235.95898605000002 L 434.4223904000001,235.83195040000007 L 434.12158109999996,235.61290234999993 L 433.78717120000005,235.2958512 L 433.3999625,234.87480625 L 432.94075680000003,234.3437768 L 432.3903559,233.69677215 L 431.7295616,232.9278016 L 430.9391757,232.03087445 L 430.0,231.0 L 427.8038059400001,228.74718389000003 L 425.5719907200001,226.64683552000008 L 423.3342617799999,224.6711808299999 L 421.12032656,222.79244576000002 L 418.9598925,220.98285625 L 416.88266704000006,219.21463824000003 L 414.91835762000005,217.46001766999998 L 413.09667168,215.69122048000003 L 411.44731666,213.88047261000003 L 410.0,212.0 L 408.67359799,209.96709070000006 L 407.44668672000006,207.82613760000007 L 406.30915732999995,205.55373289999994 L 405.25090096,203.1264688 L 404.26180875,200.5209375 L 403.33177184,197.7137312 L 402.45068137,194.6814421 L 401.60842848000004,191.40066240000002 L 400.79490431,187.8479843 L 400.0,184.0 L 398.96805579,177.77778481000004 L 398.38999232000015,172.10667808000008 L 398.19826632999997,166.97353206999998 L 398.32533456000004,162.36519904000002 L 398.70365375000006,158.26853125 L 399.26568064,154.67038096000002 L 399.94387197,151.55760043 L 400.67068448,148.91704192000003 L 401.37857491,146.73555769 L 402.0,145.0 L 402.34930624000003,144.16545280999998 L 402.7376691200001,143.43577728000002 L 403.1546668799999,142.79952546999996 L 403.58987776,142.24524944 L 404.03288,141.76150124999998 L 404.47325184,141.33683295999998 L 404.90057151999997,140.95979663 L 405.30441728000005,140.61894432000003 L 405.67436736,140.30282809000002 L 406.0,140.0 L 407.0,140.0" stroke="#000000" stroke-width="1" fill="none" id="stroke_8" /><path d="M 446.0,217.0 L 445.96193483,217.02838969 L 445.8513238400001,217.10094112000007 L 445.67354380999984,217.19872782999997 L 445.43397152000006,217.30282336000002 L 445.13798375,217.39430125 L 444.79095728000004,217.45423504000001 L 444.39826888999994,217.46369826999998 L 443.96529536,217.40376448 L 443.49741347,217.25550721000002 L 443.0,217.0 L 442.4141875000001,216.54435949000003 L 441.79900800000013,215.89088512000006 L 441.1559584999999,215.05173462999994 L 440.486536,214.03906576 L 439.7922375,212.86503625 L 439.07456,211.54180384000003 L 438.3350005,210.08152626999998 L 437.575056,208.49636128000003 L 436.79622350000005,206.79846661000002 L 436.0,205.0 L 434.91616858000003,202.53855641 L 433.7323350400001,199.83855648000008 L 432.4763194599999,196.87791246999996 L 431.17594192000007,193.63453664000002 L 429.8590225,190.08634125 L 428.55338128000005,186.21123856000003 L 427.28683834,181.98714083 L 426.08721376000005,177.39196032 L 424.98232762000004,172.40360929 L 424.0,167.0 L 423.71022952000004,164.95157022 L 423.50791936000013,162.95775136000003 L 423.3844194399999,161.02710014 L 423.3310796800001,159.16817328 L 423.33925,157.38952749999999 L 423.40028032000004,155.69971952000003 L 423.50552056,154.10730606 L 423.64632064,152.62084384000002 L 423.81403048000004,151.24888958 L 424.0,150.0 L 424.1800867900001,149.12949008 L 424.4105075200001,148.38536704000003 L 424.6823797299999,147.75944495999997 L 424.9868209600001,147.24353792 L 425.31494875,146.82945999999998 L 425.65788064000003,146.50902528 L 426.00673417,146.27404783999998 L 426.35262688,146.11634176 L 426.68667631,146.02772112 L 427.0,146.0 L 429.0,146.0 L 430.0,147.0" stroke="#000000" stroke-width="1" fill="none" id="stroke_9" /><path d="M 501.0,244.0 L 500.70000000000005,243.99800000000002 L 500.4000000000001,243.98400000000007 L 500.0999999999999,243.9459999999999 L 499.8,243.872 L 499.5,243.75 L 499.20000000000005,243.568 L 498.9,243.31399999999996 L 498.6,242.976 L 498.3,242.54200000000003 L 498.0,242.0 L 497.01777625000005,240.17451510000004 L 495.8987600000002,238.28716480000006 L 494.6844337499999,236.32160569999996 L 493.41628000000003,234.26149439999998 L 492.13578125000004,232.0904875 L 490.8844200000001,229.7922416 L 489.70367875,227.3504133 L 488.63504000000006,224.74865920000002 L 487.71998625000003,221.9706359 L 487.0,219.0 L 485.98969097,213.29950181 L 485.2869993600001,208.00442368000003 L 484.8690943899999,203.07944126999996 L 484.7131452800001,198.48923024 L 484.79632125,194.19846625 L 485.09579152000003,190.17182496 L 485.58872531,186.37398203 L 486.25229184000005,182.76961312 L 487.06366033000006,179.32339389000003 L 488.0,176.0 L 488.84475854000004,173.40733438000004 L 489.72399392000017,171.06881184000005 L 490.62938077999985,168.97185085999996 L 491.55259376000004,167.10386992000002 L 492.4853075,165.4522875 L 493.41919664,164.00452208000002 L 494.34593581999997,162.74799214 L 495.25719968000004,161.67011616000002 L 496.14466286000004,160.75831262 L 497.0,160.0 L 497.35175938000003,159.75412863000003 L 497.74796544000014,159.55170944000002 L 498.1843040599999,159.38860380999995 L 498.6564611200001,159.26067311999998 L 499.1601225,159.16377875 L 499.69097408000005,159.09378208 L 500.24470174,159.04654448999997 L 500.81699136000003,159.01792736000002 L 501.40352882,159.00379207 L 502.0,159.0 L 503.0,159.0" stroke="#000000" stroke-width="1" fill="none" id="stroke_10" /></g></svg>