<svg width="800" height="600" xmlns="http://www.w3.org/2000/svg">

 <g>
  <title>Layer 1</title>
  <path d="m393,447c-2,-1 -7.37115,-3.51309 -18,-12c-16.6138,-13.26578 -45.55792,-40.58752 -58,-58c-10.48099,-14.66794 -19.14761,-31.57159 -25,-49c-6.25415,-18.62488 -10.4971,-38.85995 -12,-63c-1.1806,-18.96329 -2.08682,-39.18542 1,-54c2.97006,-14.25407 4.51492,-30.18912 16,-51c4.15646,-7.53151 18.84796,-26.22365 32,-35c13.84402,-9.23812 29.9281,-16.49359 42,-18c11.94891,-1.49107 22.93695,1.19622 32,4c6.9549,2.1516 16.95526,6.07316 30,14c14.94922,9.08412 28.08716,18.80428 37,28c6.95975,7.18065 13.84183,19.62167 18,30c5.05862,12.62578 6.42435,29.01105 7,44c0.50037,13.02879 -1,24 0,36c1,12 1.54376,24.01233 1,36c-0.50052,11.03403 -4.66232,23.06613 -6,29c-1.60098,7.1019 -4.13666,14.9556 -7,24c-3.15112,9.9534 -5.10236,18.32141 -8,25c-2.32086,5.34918 -5.17755,9.91446 -8,16c-3.20432,6.90884 -7,15 -9,20c-2,5 -4,7 -5,5l-1,-2l0,-3" id="svg_4" stroke="#000" fill="none"/>
  <path d="m430,268c1,0 1,0 2,0c4,0 11.04495,0.73309 17,0c4.09222,-0.50378 9.08026,-1.31073 12,-2c2.17624,-0.51373 5.22272,-1.724 9,-5c2.13675,-1.85318 6,-7 10,-13l3,-8l4,-7l2,-4" id="svg_5" stroke="#000" fill="none"/>
  <path d="m344,285c-2,0 -6,0 -8,0c-4,0 -7.86829,-0.28857 -12,-2c-5.84314,-2.42029 -11.13202,-3.75531 -15,-6c-3.11847,-1.80972 -6.69345,-4.4588 -8,-5c-0.92389,-0.38269 -2,-1 -2,-2l-1,-2l-1,-1l-1,-1" id="svg_6" stroke="#000" fill="none"/>
  <path d="m434,197c0,0 -1.93414,0.14429 -4,1c-2.92157,1.21014 -6.62531,2.41362 -11,6c-2.78833,2.28587 -4,5 -4,9c0,3 2.41589,5.76108 4,9c1.38934,2.84073 3.76108,6.41589 7,8c5.68146,2.7787 11,2 17,2c5,0 11.21454,1.44891 16,0c3.45084,-1.04483 6.20682,-3.81265 8,-6c2.28589,-2.78833 3.14429,-5.93414 4,-8c1.21014,-2.92157 0.17557,-6.09789 -1,-8c-2.62866,-4.25325 -6,-7 -9,-10c-3,-3 -6.82443,-5.09789 -8,-7c-0.52573,-0.85065 -2.15225,-2.23463 -4,-3c-1.30655,-0.5412 -4.69345,-2.4588 -6,-3c-0.92389,-0.38269 -2.15225,-0.76537 -4,0c-2.61313,1.0824 -4.186,3.69255 -6,5c-2.29453,1.65381 -3,4 -4,5c-2,2 -2,3 -3,4l-1,0" id="svg_8" stroke="#000" fill="none"/>
  <path d="m365,227c0,-1 0.28589,-3.21167 -2,-6c-2.68979,-3.28101 -4.59399,-4.513 -7,-6c-2.69,-1.66251 -5.15225,-2.23463 -7,-3c-1.30655,-0.5412 -5.90778,-1.49623 -10,-2c-1.98502,-0.24437 -4,0 -7,0c-3,0 -6.02249,-0.36655 -9,0c-4.09222,0.50377 -7,3 -10,4c-3,1 -5.29291,2.29289 -6,3c-0.70709,0.70711 0,2 0,5c0,2 -0.47778,5.38074 2,8c3.43607,3.63226 7.5582,7.51929 11,10c3.62799,2.6149 10.06458,3.19908 15,4c3.12143,0.50655 6,1 10,1c3,0 7,0 10,0c2,0 5,-1 7,-2c2,-1 3.34619,-1.70546 5,-4c1.30746,-1.814 1.4588,-2.69344 2,-4c0.38269,-0.92387 0,-2 0,-4c0,-2 0.91553,-4.14311 0,-7c-2.62524,-8.19196 -6,-8 -7,-8l-2,-1l-2,-1l-1,0" id="svg_9" stroke="#000" fill="none"/>
  <path d="m389,250c0,1 1.49622,1.90779 2,6c0.73309,5.95505 1.07013,17.00906 0,25c-0.93857,7.00851 0.53238,15.19891 2,18c2.32053,4.42889 4.33749,8.31 6,11c1.487,2.40601 4,3 5,4c1,1 6,1 11,1l4,0l1,-1l1,-1" id="svg_10" stroke="#000" fill="none"/>
  <path d="m349,339c0,1 0.82443,4.0979 2,6c2.62866,4.25327 5.50446,9.56631 10,13c6.40714,4.89374 10.79025,5.99023 18,7c6.93234,0.97092 16,0 25,0c12,0 18.19577,0.35114 22,-2c4.25327,-2.62866 8.23273,-6.73325 14,-12c6.26572,-5.72195 11.81641,-9.37439 19,-14c4.75613,-3.06253 6,-11 8,-16l3,-7l1,-3l1,-4" id="svg_11" stroke="#000" fill="none"/>
  <path d="m461,308c1,0 5.12872,-0.86935 8,0c3.45084,1.04483 5.07843,2.78986 8,4c2.06586,0.85571 3,3 3,6l1,3l1,2l0,1" id="svg_14" stroke="#000" fill="none"/>
  <path d="m340,225c0,-1 -1,-1 -4,-1c-2,0 -4.07611,-0.38269 -5,0c-1.30655,0.5412 -1.4588,1.69344 -2,3c-0.38269,0.92387 -0.94867,2.15395 0,5c1.58115,4.74342 3.81265,6.2068 6,8c2.78833,2.28587 5.87857,4.49345 9,5c1.97418,0.32036 5.0535,0.4595 7,0c2.17624,-0.51375 2.4588,-2.69344 3,-4c1.53073,-3.69551 0.76538,-4.15224 0,-6c-0.5412,-1.30656 -5,-4 -6,-6c-1,-2 -2.69345,-2.4588 -4,-3c-0.92389,-0.38269 -3,0 -4,-1l-1,-1l-1,0" id="svg_16" stroke="#000" fill="none"/>
  <path d="m444,207c-1,0 -1,0 -2,0c-1,0 -2.07611,-0.38269 -3,0c-1.30655,0.5412 -2.07611,1.61731 -3,2c-2.61313,1.0824 -3,3 -3,4c0,1 0,4 1,6c1,2 2.41885,3.41885 4,5c1.58115,1.58115 4,3 6,4c2,1 5,2 7,2c1,0 3.69254,-0.186 5,-2c0.8269,-1.14726 3,-3 3,-4c0,-2 0.30746,-4.186 -1,-6c-0.8269,-1.14726 -3.186,-3.69255 -5,-5c-1.14728,-0.8269 -3.07843,-1.78986 -6,-3c-2.06586,-0.85571 -5,-1 -7,-1c0,0 -1,0 -2,0l-1,0" id="svg_19" stroke="#000" fill="none"/>
  <path d="m413,389c-1,0 -1.10339,-0.09366 -2,1c-2.28589,2.78833 -4.49875,6.94672 -5,14c-0.35443,4.98743 1.52222,10.38074 4,13c3.43607,3.63226 8,5 11,6l4,1l5,2l2,0" id="svg_20" stroke="#000" fill="none"/>
  <path d="m345,429c0,2 -0.49976,13.97659 -1,30c-0.56168,17.99124 1,38 1,41l2,-1l5,-5" id="svg_21" stroke="#000" fill="none"/>
  <path d="m485,395c0,2 -0.49924,3.95847 -1,13c-0.7189,12.9801 1.49976,29.97659 2,46c0.28085,8.99561 0.49347,16.87857 1,20c0.16019,0.98709 1,1 1,2c0,1 0.49347,4.87857 1,8c0.16019,0.98709 0,2 0,3l0,1l0,0" id="svg_22" stroke="#000" fill="none"/>
 </g>
</svg>