<svg width="800" height="600" xmlns="http://www.w3.org/2000/svg">
 <g id="Layer_1">
  <title>Layer 1</title>
  <ellipse ry="147.5" rx="182" id="svg_1" cy="351.5" cx="440" stroke="#000" fill="#fff"/>
  <path d="m476,285c1,0 2.96384,1.11588 6,2c3.95868,1.15277 10.03748,2.38907 15,3c4.09222,0.50378 10.95847,3.49924 20,4c15.97552,0.8848 34,0 51,0c17,0 19,0 19,1c0,1 -1.49829,1.93796 -2,8c-0.57739,6.97614 -0.49939,13.96262 -1,24c-0.34869,6.9913 0.28143,20.12161 3,34c1.58521,8.09241 2.67963,14.02582 3,16c0.50653,3.12143 1,4 1,4c-8,0 -19.00775,0.37402 -28,0c-12.03119,-0.50043 -25.06903,-1.41464 -36,-3c-15.13867,-2.19559 -29,-3 -41,-3c-6,0 -9,0 -13,0c-4,0 -7,0 -8,0c0,0 0.51501,-5.90082 2,-15c3.07721,-18.85553 6.49902,-27.95331 7,-36c0.43497,-6.98648 0.49875,-12.94672 1,-20c0.42532,-5.98489 -0.49829,-10.93796 -1,-17c-0.24744,-2.98978 0,-6 0,-9l0,-2" id="svg_2" stroke="#000" fill="none"/>
  <path stroke="#000" d="m378.31457,281c0,0 -3.67088,0 -8.25948,0c-25.69616,0 -42.21513,0 -60.56953,0c-15.60124,0 -30.29541,-0.37283 -35.79109,0c-7.38461,0.50098 -15.60124,1 -22.02528,1c-3.67088,0 -3.76131,1.00485 -3.67088,2c0.4611,5.07422 4.5886,12 9.1772,20c4.5886,8 10.71255,17.7301 13.7658,27c5.79151,17.58334 8.25948,27 11.01264,35c2.75316,8 3.93969,12.29291 4.5886,13c0.64891,0.70709 0.98757,0.38269 1.83544,0c2.39812,-1.0824 7.98336,-4.4866 18.3544,-6c15.4632,-2.25647 29.36704,0 44.96829,0c12.84808,0 30.32616,-0.15158 36.70881,2c2.77246,0.9346 6.3126,2.49347 9.1772,3c1.81175,0.32037 2.92638,0.58472 3.67088,0c2.35429,-1.84903 2.2936,-8.95847 2.75316,-18c0.55826,-10.98315 -0.91772,-19 -2.75316,-25c-1.83544,-6 -4.3995,-11.08743 -6.42404,-16c-1.68129,-4.07965 -2.6727,-7.03067 -3.67088,-10c-1.69986,-5.05658 -4.5886,-9 -6.42404,-14c-1.83544,-5 -2.28831,-8.87857 -2.75316,-12c-0.29401,-1.97418 0,-3 0,-4l0,0l0,-1" id="svg_3" fill="none"/>
  <path d="m473,329c-1,0 -1,0 -3,0c-4,0 -10,0 -16,0c-6,0 -11,0 -15,0c-3,0 -8,0 -13,0c-14,0 -19,0 -25,0l-3,0l0,0l-1,0" id="svg_4" stroke="#000" fill="none"/>
  <path d="m579,337c5,1 7.72931,2.70703 20,7c6.8717,2.40408 13.90515,4.48874 23,6c8.93292,1.48434 18.73657,7.57718 27,11c5.84314,2.42029 6,3 6,5c0,4 -2,10 -5,18l-2,7l-1,4l0,2" id="svg_5" stroke="#000" fill="none"/>
  <path d="m272,334c-1,0 -3.08954,2.87183 -6,5c-5.16873,3.77945 -10,7 -17,10c-7,3 -11.69344,6.4588 -13,7c-0.92387,0.38269 -1,0 0,2c1,2 2.8031,4.71896 7,18c1.24237,3.93149 2,13 2,21l0,3l1,1" id="svg_6" stroke="#000" fill="none"/>
  <path d="m354,417c1,1 3.186,3.69254 5,5c9.17816,6.61523 11.50317,9.78125 19,14c6.63705,3.73492 14.93463,6.52859 29,8c14.95172,1.56412 25.80963,0.43271 34,-2c8.83795,-2.62503 21.16946,-2.22525 32,-5c9.19003,-2.35446 12.54135,-5.70267 14,-9c1.66803,-3.77063 6,-9 9,-11l2,-2" id="svg_7" stroke="#000" fill="none"/>
  <ellipse ry="27" rx="30" id="svg_8" cy="337" cx="537" stroke="#000" fill="#fff"/>
  <ellipse ry="27" rx="30" id="svg_11" cy="327" cx="330" stroke="#000" fill="#fff"/>
  <ellipse ry="7.5" rx="9.5" id="svg_9" cy="332.5" cx="332.5" stroke="#000" fill="#fff"/>
  <ellipse ry="7.5" rx="9.5" id="svg_10" cy="340.5" cx="538.5" stroke="#000" fill="#fff"/>
  <path d="m399,250c0,0 -2.30524,0.82993 -6,-1c-11.47586,-5.6837 -21.16544,-15.81068 -27,-29c-5.00406,-11.31192 -5.4343,-25.97298 -5,-41c0.69873,-24.17668 8,-37 16,-49l5,-8l2,-2" id="svg_12" stroke="#000" fill="none"/>
  <path d="m406,241c-1,0 -2,-1 -4,-2c-2,-1 -12.09277,-10.48016 -15,-18c-3.32452,-8.59927 -3,-20 -3,-33c0,-14 2,-26 7,-35l5,-9l4,-4l0,-1" id="svg_13" stroke="#000" fill="none"/>
  <path d="m435,236c-1,0 -1.6001,-1.33385 -5,-5c-7.22827,-7.79436 -15.54535,-12.58469 -20,-19c-4.59839,-6.6223 -7.37012,-14.6552 -10,-28c-4.27133,-21.67384 0.14774,-33.94341 2,-39c1.08768,-2.96933 3,-4 4,-5l1,0" id="svg_14" stroke="#000" fill="none"/>
  <path d="m446,217c0,0 -1.29871,1.05147 -3,0c-1.9021,-1.17557 -4.3186,-5.851 -7,-12c-3.41519,-7.83176 -8.96075,-19.27133 -12,-38c-1.12128,-6.90961 -0.64072,-13.05165 0,-17c0.50653,-3.12144 2,-4 3,-4l2,0l1,1" id="svg_15" stroke="#000" fill="none"/>
  <path transform="rotate(-135.291 493.855 201.5)" d="m501,244c-1,0 -2,0 -3,-2c-3,-6 -8.97125,-12.7587 -11,-23c-3.90576,-19.71661 -2.30405,-32.08748 1,-43c2.74915,-9.07977 6.21167,-13.71413 9,-16c1.09366,-0.89659 3,-1 5,-1l1,0" id="svg_16" stroke="#000" fill="none"/>
  <line id="svg_17" y2="484" x2="603" y1="484" x1="283" opacity="NaN" stroke="#000" fill="none"/>
 </g>
</svg>