<svg width="800" height="600" xmlns="http://www.w3.org/2000/svg">
 <g id="Layer_1">
  <title>Layer 1</title>
  <ellipse ry="168" rx="134.5" id="svg_1" cy="343" cx="413.5" stroke="#000" fill="#fff"/>
  <ellipse ry="22" rx="36.5" id="svg_4" cy="285" cx="472.5" stroke="#000" fill="#fff"/>
  <ellipse ry="22" rx="36.5" id="svg_7" cy="287" cx="361.5" stroke="#000" fill="#fff"/>
  <ellipse ry="9" rx="7" id="svg_8" cy="296" cx="376" stroke="#000" fill="#fff"/>
  <ellipse stroke="#000" ry="9" rx="7" id="svg_9" cy="295" cx="481" fill="#fff"/>
  <path d="m333,361c0,0 2,1 5,1c7,0 15,0 23,0c11,0 15.00879,0.12427 30,-1c12.00787,-0.90054 23.95847,-1.49924 33,-2c4.99234,-0.27649 18.09662,0.46625 24,-1c6.13806,-1.52454 10,-3 13,-3c3,0 9,0 16,0c6,0 8.29291,-0.70709 9,0c0.70709,0.70709 0,2 0,5c0,3 0,7 0,11c0,6 -1.41589,9.76108 -3,13c-1.38934,2.84073 -3.71411,8.21167 -6,11c-1.79318,2.18735 -3.81265,4.20682 -6,6c-2.78833,2.28589 -4.76108,4.41589 -8,6c-2.84073,1.38934 -5.54916,2.95517 -9,4c-2.87128,0.86935 -6,0 -10,0c-3,0 -8,1 -12,1c-4,0 -7.92767,-0.23172 -14,-2c-3.95868,-1.15277 -7.87857,-2.49347 -11,-3c-1.97418,-0.32037 -4.90283,-1.22421 -7,-2c-3.867,-1.43048 -5.80566,-1.44839 -10,-3c-3.867,-1.43048 -7.70251,-3.56351 -13,-6c-2.87296,-1.32138 -5.85077,-4.21005 -10,-7c-4.83881,-3.2536 -10.31,-5.33749 -13,-7c-1.203,-0.7435 -1.39099,-1.7695 -5,-4c-2.69,-1.66251 -3.70547,-2.34619 -6,-4c-1.814,-1.30746 -5.04733,-3.9379 -9,-7c-5.06186,-3.92142 -8.29871,-4.82108 -10,-8c-0.47186,-0.88168 -1,-2 -2,-3l-1,0" id="svg_13" stroke="#000" fill="none"/>
  <path d="m378,364c0,0 1,0 1,0c1,6 3.54861,8.76993 5,13c1.65482,4.82303 2.85114,10.48532 5,15c1.772,3.7229 1,5 2,7l0,0" id="svg_14" stroke="#000" fill="none"/>
  <path d="m434,357c0,0 0.48627,0.82376 1,3c0.4595,1.9465 -0.48056,7.03873 0,10c0.50653,3.12143 2.54135,5.70267 4,9c1.66803,3.77063 2.79395,7.08743 5,12c0.91602,2.03983 2,5 3,7c1,2 2,4 2,5c0,1 0,2 1,5l0,1l1,2l-1,0" id="svg_15" stroke="#000" fill="none"/>
  <path d="m355,378c2,0 8.81558,0.99246 17,2c6.94754,0.85529 13,2 19,2c6,0 15,0 24,0c8,0 14,0 18,0c5,0 10.86194,-0.47546 17,-2c5.90338,-1.46625 10.80566,-2.44839 15,-4c3.867,-1.43048 8.05164,-1.35928 12,-2c3.12143,-0.50653 4,-1 5,-2l2,-1l3,-1l2,0" id="svg_16" stroke="#000" fill="none"/>
  <path d="m433,218c1,-1 8,-2 27,-2c20,0 44.45313,-1.26857 60,5c8.29535,3.34473 12.68317,10.12241 19,26c7.62079,19.15524 15.98987,40.70923 22,63c4.80017,17.80331 6.91882,35.01276 9,48c1.92499,12.01227 3,25 3,29c0,2 -0.07611,3.61731 -1,4c-1.30658,0.5412 -1,-2 -1,-9l-1,-6" id="svg_28" stroke="#000" fill="none"/>
  <path d="m442,224c0,-1 1.69,-3.32439 9,-10c11.53452,-10.53351 28.27359,-23.51758 52,-29c24.53296,-5.66879 46.38184,-5.28371 59,-2c13.85632,3.60593 28.49268,13.40038 42,25c16.63849,14.28851 30.00299,30.0929 36,46c6.16077,16.34152 7.49976,34.97797 8,52c0.52875,17.99222 -4.7373,46.02948 -7,65c-1.79224,15.02625 -1.15222,22.23462 -3,23c-1.30658,0.5412 -2,-1 -3,-3l-1,-1" id="svg_29" stroke="#000" fill="none"/>
  <path d="m453,239c5,-1 16,-1 31,-1c20,0 40.30206,2.84784 53,12c11.47272,8.26904 22.68262,24.23224 33,38c10.67712,14.24777 24.89374,31.1604 33,52c10.55682,27.13953 9.33234,44.14874 7,59c-1.91901,12.21954 -3.49939,24.96262 -4,35c-0.3985,7.99008 -0.29291,13.29291 -1,14c-0.70709,0.70709 -1,-2 -3,-3l-2,-3" id="svg_30" stroke="#000" fill="none"/>
  <path d="m393,239c-1,0 -1.9852,-0.04555 -5,-1c-9.9534,-3.15112 -26.95459,-7.99954 -60,-9c-21.98993,-0.66576 -43.823,-0.42125 -55,7c-7.68066,5.09976 -13.07648,10.95723 -22,27c-11.09534,19.94727 -26.29971,41.00827 -39,59c-10.08797,14.29102 -15.34187,29.36703 -10,34c0.75545,0.65521 2,-3 5,-7l4,-8l4,-1" id="svg_31" stroke="#000" fill="none"/>
  <path d="m350,248c-2,0 -3.95468,1.19089 -12,3c-9.94958,2.23732 -25.1622,4.13797 -38,7c-17.29544,3.8558 -35.22803,11.66479 -53,24c-18.24046,12.6604 -37.81749,29.51251 -50,56c-3.96414,8.6189 -5,18 -5,24c0,6 0,9 0,10c0,0 1,-2 2,-4l3,-3" id="svg_32" stroke="#000" fill="none"/>
  <path d="m376,219c0,-1 -1.88153,-1.19028 -5,-3c-3.86798,-2.24469 -12.98532,-7.9357 -25,-13c-16.09305,-6.78336 -37.07294,-7.5732 -54,-6c-16.20895,1.50647 -28.19202,10.83047 -37,21c-10.22664,11.80745 -29.97011,40.56494 -39,62c-7.86096,18.66025 -11.13139,36.38419 -19,53c-6.31929,13.34415 -11.39902,23.8981 -13,31c-1.33768,5.93387 -2,10 -2,11l0,-1l0,-1l4,-8" id="svg_33" stroke="#000" fill="none"/>
  <path d="m394,217c-1,-1 -1.82462,-5.06134 -4,-11c-3.70453,-10.11317 -5.07104,-21.00848 -11,-30c-3.11404,-4.72258 -8.80835,-8.34544 -14,-11c-6.78079,-3.4671 -15.81558,-5.99245 -24,-7c-9.92508,-1.22183 -19.81934,2.04024 -27,9c-9.19571,8.91284 -24.87061,39.75987 -42,64c-19.73999,27.93445 -39.62111,50.18103 -45,72c-6.02687,24.44742 -4.49988,48.9837 -5,72c-0.34758,15.99622 -0.70711,25.29291 0,26c0.70711,0.70709 2,0 2,-1l0,-3l3,-11l3,-4" id="svg_34" stroke="#000" fill="none"/>
  <path d="m403,193c0,-1 2.07166,-6.92102 12,-16c14.75937,-13.4967 44.52206,-36.66605 68,-44c20.24829,-6.32509 38.13373,-4.56876 59,-2c20.24329,2.49207 43.25879,13.20688 61,27c20.66248,16.06432 28.34991,38.89072 36,64c11.5296,37.84268 16,53 16,67c0,12 -1.70966,26.048 -4,39c-1.77576,10.04224 -2,15 -2,16l-1,0l0,0l-1,0" id="svg_35" stroke="#000" fill="none"/>
  <path d="m427,208c1,-1 3.00879,-1.9715 16,-6c16.01093,-4.9649 35.25824,-9.20364 55,-6c21.8501,3.54579 41.71924,15.04094 58,28c19.94745,15.87764 39.83582,29.91525 56,46c12.62067,12.55862 16.70959,28.09366 22,44c5.68958,17.10641 9.63788,32.21619 13,49c1.42993,7.13831 2.09662,13.01691 1,19c-0.91925,5.01547 -1,7 -2,7l-1,0" id="svg_36" stroke="#000" fill="none"/>
  <path d="m397,455c0,-1 0.5712,-2.00745 9,-5c8.6882,-3.08466 15,-4 19,-4c3,0 7.134,-1.02667 11,0c7.79218,2.06934 11.32367,5.52017 13,7c2.703,2.38617 4,6 6,9l0,1l1,0" id="svg_37" stroke="#000" fill="none"/>
 </g>
</svg>